<svg width="147" height="64" viewBox="0 0 147 64" fill="none" xmlns="http://www.w3.org/2000/svg">
<g style="mix-blend-mode:darken" filter="url(#filter0_d_2_5)">
<path d="M37.184 24.56C38.2933 26.8213 38.848 29.3387 38.848 32.112C38.848 34.8853 38.2933 37.4027 37.184 39.664C36.0747 41.8827 34.6453 43.6533 32.896 44.976C29.3547 47.7067 25.6853 49.072 21.888 49.072H13.888V56.304C13.888 57.2853 13.8453 58.032 13.76 58.544C13.7173 59.0133 13.5253 59.568 13.184 60.208C12.5867 61.36 10.9227 61.936 8.192 61.936C5.20533 61.936 3.456 61.1467 2.944 59.568C2.688 58.8427 2.56 57.7333 2.56 56.24V20.72C2.56 19.7387 2.58133 19.0133 2.624 18.544C2.70933 18.032 2.92267 17.456 3.264 16.816C3.86133 15.664 5.52533 15.088 8.256 15.088H21.952C25.7067 15.088 29.3547 16.4533 32.896 19.184C34.6453 20.5067 36.0747 22.2987 37.184 24.56ZM21.952 37.744C23.232 37.744 24.4907 37.2747 25.728 36.336C26.9653 35.3973 27.584 33.9893 27.584 32.112C27.584 30.2347 26.9653 28.8267 25.728 27.888C24.4907 26.9067 23.2107 26.416 21.888 26.416H13.888V37.744H21.952ZM57.9735 61.872C53.6642 61.872 50.0802 60.2507 47.2215 57.008C44.4055 53.7227 42.9975 49.7333 42.9975 45.04V33.84C42.9975 32.816 43.0188 32.0693 43.0615 31.6C43.1468 31.1307 43.3388 30.576 43.6375 29.936C44.2348 28.784 45.8988 28.208 48.6295 28.208C51.6162 28.208 53.3655 29.0187 53.8775 30.64C54.1335 31.3227 54.2615 32.4107 54.2615 33.904V45.104C54.2615 46.8533 54.7522 48.2187 55.7335 49.2C56.7575 50.1813 58.1015 50.672 59.7655 50.672C61.4722 50.672 62.8375 50.16 63.8615 49.136C64.9282 48.112 65.4615 46.768 65.4615 45.104V33.776C65.4615 32.7947 65.4828 32.0693 65.5255 31.6C65.6108 31.088 65.8242 30.512 66.1655 29.872C66.7202 28.7627 68.3628 28.208 71.0935 28.208C73.7815 28.208 75.4242 28.784 76.0215 29.936C76.3202 30.576 76.4908 31.152 76.5335 31.664C76.6188 32.1333 76.6615 32.8587 76.6615 33.84V56.496C76.6615 57.4347 76.6188 58.16 76.5335 58.672C76.4908 59.1413 76.2988 59.6747 75.9575 60.272C75.3175 61.3813 73.6748 61.936 71.0295 61.936C68.4268 61.936 66.8268 61.424 66.2295 60.4C65.8028 59.6747 65.5895 58.8 65.5895 57.776C65.4188 58.0747 65.0348 58.5013 64.4375 59.056C63.8402 59.6107 63.2642 60.08 62.7095 60.464C61.2588 61.4027 59.6802 61.872 57.9735 61.872ZM101.522 28.336C104.466 28.336 106.194 29.1467 106.706 30.768C106.962 31.5787 107.09 32.6453 107.09 33.968C107.09 35.2907 106.941 36.3573 106.642 37.168C106.386 37.936 105.959 38.4907 105.362 38.832C104.466 39.344 103.165 39.6 101.458 39.6L97.362 39.344V56.496C97.362 58.1173 97.1487 59.3333 96.722 60.144C96.338 60.912 95.7193 61.424 94.866 61.68C94.0553 61.936 92.9887 62.064 91.666 62.064C90.3433 62.064 89.2767 61.936 88.466 61.68C87.698 61.3813 87.1433 60.9333 86.802 60.336C86.4607 59.696 86.2473 59.12 86.162 58.608C86.1193 58.096 86.098 57.3493 86.098 56.368V39.408H83.794C82.6847 39.3227 81.8953 39.0667 81.426 38.64C80.6153 37.8293 80.21 36.272 80.21 33.968C80.21 30.4693 81.4687 28.72 83.986 28.72H86.098V25.328C86.098 22.0427 87.2713 19.0773 89.618 16.432C91.9647 13.744 95.3567 12.4 99.794 12.4C100.775 12.4 101.501 12.4427 101.97 12.528C102.482 12.5707 103.058 12.7627 103.698 13.104C104.85 13.6587 105.426 15.3013 105.426 18.032C105.426 20.08 105.063 21.552 104.338 22.448C103.741 23.1307 102.802 23.5147 101.522 23.6C101.138 23.6 100.541 23.6 99.73 23.6C98.1513 23.6 97.362 24.1333 97.362 25.2V28.72L101.522 28.336ZM110.866 33.904C110.866 32.9227 110.887 32.1973 110.93 31.728C111.015 31.216 111.207 30.64 111.506 30C112.103 28.8907 113.767 28.336 116.498 28.336C118.546 28.336 119.997 28.6987 120.85 29.424C121.575 30.0213 121.959 30.9387 122.002 32.176C122.045 32.6027 122.066 33.2213 122.066 34.032V56.432C122.066 57.4133 122.023 58.16 121.938 58.672C121.895 59.1413 121.703 59.696 121.362 60.336C120.807 61.4453 119.165 62 116.434 62C113.746 62 112.103 61.424 111.506 60.272C111.207 59.632 111.015 59.0773 110.93 58.608C110.887 58.1387 110.866 57.392 110.866 56.368V33.904ZM121.362 22.064C121.063 22.6613 120.509 23.088 119.698 23.344C118.887 23.6 117.799 23.728 116.434 23.728C115.111 23.728 114.045 23.6 113.234 23.344C112.423 23.088 111.847 22.64 111.506 22C111.207 21.36 111.015 20.8053 110.93 20.336C110.887 19.824 110.866 19.0773 110.866 18.096C110.866 17.1147 110.887 16.3893 110.93 15.92C111.015 15.408 111.207 14.8533 111.506 14.256C112.103 13.104 113.767 12.528 116.498 12.528C119.186 12.528 120.807 13.104 121.362 14.256C121.703 14.896 121.895 15.472 121.938 15.984C122.023 16.4533 122.066 17.1787 122.066 18.16C122.066 19.1413 122.023 19.888 121.938 20.4C121.895 20.8693 121.703 21.424 121.362 22.064Z" fill="#050505" shape-rendering="crispEdges"/>
<path d="M37.184 24.56L37.6329 24.3398L37.6329 24.3398L37.184 24.56ZM37.184 39.664L37.6312 39.8876L37.6329 39.8842L37.184 39.664ZM32.896 44.976L32.5944 44.5772L32.5907 44.58L32.896 44.976ZM13.888 49.072V48.572H13.388V49.072H13.888ZM13.76 58.544L13.2668 58.4618L13.2637 58.4802L13.2621 58.4987L13.76 58.544ZM13.184 60.208L12.7428 59.9727L12.7401 59.9778L13.184 60.208ZM2.944 59.568L3.41977 59.4137L3.4155 59.4016L2.944 59.568ZM2.624 18.544L2.1308 18.4618L2.12774 18.4802L2.12605 18.4987L2.624 18.544ZM3.264 16.816L3.70521 17.0513L3.70788 17.0462L3.264 16.816ZM32.896 19.184L32.5907 19.58L32.5944 19.5828L32.896 19.184ZM25.728 36.336L25.4258 35.9377L25.4258 35.9377L25.728 36.336ZM25.728 27.888L25.4172 28.2798L25.4258 28.2863L25.728 27.888ZM13.888 26.416V25.916H13.388V26.416H13.888ZM13.888 37.744H13.388V38.244H13.888V37.744ZM36.7351 24.7802C37.8075 26.9663 38.348 29.4072 38.348 32.112H39.348C39.348 29.2701 38.7791 26.6764 37.6329 24.3398L36.7351 24.7802ZM38.348 32.112C38.348 34.8168 37.8075 37.2577 36.7351 39.4438L37.6329 39.8842C38.7791 37.5476 39.348 34.9539 39.348 32.112H38.348ZM36.7368 39.4404C35.6573 41.5993 34.2748 43.3067 32.5944 44.5772L33.1976 45.3748C35.0159 44 36.492 42.166 37.6312 39.8876L36.7368 39.4404ZM32.5907 44.58C29.1207 47.2557 25.5561 48.572 21.888 48.572V49.572C25.8146 49.572 29.5886 48.1576 33.2013 45.372L32.5907 44.58ZM21.888 48.572H13.888V49.572H21.888V48.572ZM13.388 49.072V56.304H14.388V49.072H13.388ZM13.388 56.304C13.388 57.2775 13.3452 57.9912 13.2668 58.4618L14.2532 58.6262C14.3454 58.0728 14.388 57.2932 14.388 56.304H13.388ZM13.2621 58.4987C13.2278 58.8756 13.0679 59.3631 12.7428 59.9727L13.6252 60.4433C13.9827 59.7729 14.2069 59.1511 14.2579 58.5893L13.2621 58.4987ZM12.7401 59.9778C12.5188 60.4046 12.0794 60.7702 11.3244 61.0315C10.5657 61.2941 9.52884 61.436 8.192 61.436V62.436C9.58582 62.436 10.7463 62.2899 11.6516 61.9765C12.5606 61.6618 13.2518 61.1634 13.6279 60.4382L12.7401 59.9778ZM8.192 61.436C5.23081 61.436 3.82037 60.6494 3.41961 59.4137L2.46839 59.7223C3.09163 61.6439 5.17985 62.436 8.192 62.436V61.436ZM3.4155 59.4016C3.18871 58.759 3.06 57.7196 3.06 56.24H2.06C2.06 57.7471 2.18729 58.9263 2.47251 59.7344L3.4155 59.4016ZM3.06 56.24V20.72H2.06V56.24H3.06ZM3.06 20.72C3.06 19.7413 3.08144 19.0348 3.12195 18.5893L2.12605 18.4987C2.08123 18.9918 2.06 19.736 2.06 20.72H3.06ZM3.1172 18.6262C3.19085 18.1843 3.38003 17.6609 3.70518 17.0513L2.82282 16.5807C2.46531 17.2511 2.22782 17.8797 2.1308 18.4618L3.1172 18.6262ZM3.70788 17.0462C3.92917 16.6194 4.36858 16.2538 5.12356 15.9925C5.88227 15.7299 6.91916 15.588 8.256 15.588V14.588C6.86218 14.588 5.70173 14.7341 4.79645 15.0475C3.88742 15.3622 3.19616 15.8606 2.82012 16.5858L3.70788 17.0462ZM8.256 15.588H21.952V14.588H8.256V15.588ZM21.952 15.588C25.5762 15.588 29.1196 16.9034 32.5907 19.58L33.2013 18.788C29.5898 16.0032 25.8371 14.588 21.952 14.588V15.588ZM32.5944 19.5828C34.2727 20.8517 35.6551 22.5787 36.7351 24.7802L37.6329 24.3398C36.4942 22.0187 35.018 20.1616 33.1976 18.7852L32.5944 19.5828ZM21.952 38.244C23.3628 38.244 24.725 37.7245 26.0302 36.7343L25.4258 35.9377C24.2564 36.8248 23.1012 37.244 21.952 37.244V38.244ZM26.0302 36.7343C27.4186 35.681 28.084 34.1092 28.084 32.112H27.084C27.084 33.8695 26.512 35.1136 25.4258 35.9377L26.0302 36.7343ZM28.084 32.112C28.084 30.1148 27.4186 28.5429 26.0302 27.4897L25.4258 28.2863C26.512 29.1104 27.084 30.3545 27.084 32.112H28.084ZM26.0387 27.4962C24.7308 26.4589 23.3443 25.916 21.888 25.916V26.916C23.0771 26.916 24.2506 27.3544 25.4173 28.2797L26.0387 27.4962ZM21.888 25.916H13.888V26.916H21.888V25.916ZM13.388 26.416V37.744H14.388V26.416H13.388ZM13.888 38.244H21.952V37.244H13.888V38.244ZM47.2215 57.008L46.8418 57.3334L46.8464 57.3386L47.2215 57.008ZM43.0615 31.6L42.5696 31.5106L42.5656 31.5325L42.5636 31.5547L43.0615 31.6ZM43.6375 29.936L43.1936 29.7058L43.1888 29.7151L43.1844 29.7246L43.6375 29.936ZM53.8775 30.64L53.4007 30.7906L53.4047 30.8032L53.4093 30.8156L53.8775 30.64ZM55.7335 49.2L55.3799 49.5536L55.3875 49.561L55.7335 49.2ZM63.8615 49.136L63.5152 48.7752L63.5079 48.7824L63.8615 49.136ZM65.5255 31.6L65.0323 31.5178L65.0292 31.5362L65.0276 31.5547L65.5255 31.6ZM66.1655 29.872L66.6068 30.1074L66.6127 30.0956L66.1655 29.872ZM76.0215 29.936L76.4746 29.7246L76.4702 29.7151L76.4654 29.7058L76.0215 29.936ZM76.5335 31.664L76.0352 31.7055L76.0372 31.7296L76.0416 31.7534L76.5335 31.664ZM76.5335 58.672L76.0403 58.5898L76.0372 58.6082L76.0356 58.6267L76.5335 58.672ZM75.9575 60.272L76.3906 60.5219L76.3916 60.5201L75.9575 60.272ZM66.2295 60.4L66.6614 60.1481L66.6605 60.1465L66.2295 60.4ZM65.5895 57.776H66.0895V55.8932L65.1554 57.5279L65.5895 57.776ZM64.4375 59.056L64.0973 58.6896L64.0973 58.6896L64.4375 59.056ZM62.7095 60.464L62.9811 60.8838L62.9877 60.8795L62.9941 60.8751L62.7095 60.464ZM57.9735 61.372C53.8082 61.372 50.3607 59.8127 47.5966 56.6774L46.8464 57.3386C49.7997 60.6886 53.5201 62.372 57.9735 62.372V61.372ZM47.6011 56.6826C44.8696 53.4958 43.4975 49.6249 43.4975 45.04H42.4975C42.4975 49.8418 43.9414 53.9495 46.8419 57.3334L47.6011 56.6826ZM43.4975 45.04V33.84H42.4975V45.04H43.4975ZM43.4975 33.84C43.4975 32.8179 43.519 32.0905 43.5594 31.6453L42.5636 31.5547C42.5187 32.0482 42.4975 32.8141 42.4975 33.84H43.4975ZM43.5534 31.6894C43.6284 31.2772 43.8023 30.7653 44.0906 30.1474L43.1844 29.7246C42.8754 30.3867 42.6653 30.9841 42.5696 31.5106L43.5534 31.6894ZM44.0814 30.1662C44.3027 29.7394 44.7421 29.3738 45.4971 29.1125C46.2558 28.8499 47.2927 28.708 48.6295 28.708V27.708C47.2357 27.708 46.0752 27.8541 45.1699 28.1675C44.2609 28.4822 43.5697 28.9806 43.1936 29.7058L44.0814 30.1662ZM48.6295 28.708C51.5832 28.708 52.9968 29.5116 53.4007 30.7906L54.3543 30.4894C53.7342 28.5258 51.6492 27.708 48.6295 27.708V28.708ZM53.4093 30.8156C53.632 31.4094 53.7615 32.4212 53.7615 33.904H54.7615C54.7615 32.4001 54.635 31.2359 54.3457 30.4644L53.4093 30.8156ZM53.7615 33.904V45.104H54.7615V33.904H53.7615ZM53.7615 45.104C53.7615 46.9496 54.2819 48.4555 55.3799 49.5536L56.0871 48.8464C55.2224 47.9818 54.7615 46.7571 54.7615 45.104H53.7615ZM55.3875 49.561C56.5206 50.6468 57.9965 51.172 59.7655 51.172V50.172C58.2065 50.172 56.9944 49.7159 56.0795 48.839L55.3875 49.561ZM59.7655 51.172C61.5793 51.172 63.0807 50.6239 64.2151 49.4896L63.5079 48.7824C62.5943 49.6961 61.365 50.172 59.7655 50.172V51.172ZM64.2078 49.4967C65.3854 48.3662 65.9615 46.8854 65.9615 45.104H64.9615C64.9615 46.6506 64.4709 47.8578 63.5152 48.7753L64.2078 49.4967ZM65.9615 45.104V33.776H64.9615V45.104H65.9615ZM65.9615 33.776C65.9615 32.7973 65.9829 32.0908 66.0234 31.6453L65.0276 31.5547C64.9827 32.0478 64.9615 32.792 64.9615 33.776H65.9615ZM66.0187 31.6822C66.0923 31.2403 66.2815 30.7169 66.6067 30.1073L65.7243 29.6367C65.3668 30.3071 65.1293 30.9357 65.0323 31.5178L66.0187 31.6822ZM66.6127 30.0956C66.8109 29.6993 67.2267 29.3499 67.9735 29.0977C68.7224 28.8448 69.755 28.708 71.0935 28.708V27.708C69.7013 27.708 68.5473 27.8485 67.6535 28.1503C66.7577 28.4528 66.0748 28.9354 65.7183 29.6484L66.6127 30.0956ZM71.0935 28.708C72.4084 28.708 73.4286 28.8497 74.1761 29.1118C74.9191 29.3724 75.3553 29.7373 75.5776 30.1662L76.4654 29.7058C76.0904 28.9827 75.4066 28.4836 74.507 28.1682C73.6117 27.8543 72.4666 27.708 71.0935 27.708V28.708ZM75.5684 30.1474C75.8508 30.7526 75.9989 31.2699 76.0352 31.7055L77.0318 31.6225C76.9827 31.0341 76.7895 30.3994 76.4746 29.7246L75.5684 30.1474ZM76.0416 31.7534C76.1184 32.1763 76.1615 32.8642 76.1615 33.84H77.1615C77.1615 32.8531 77.1192 32.0904 77.0254 31.5746L76.0416 31.7534ZM76.1615 33.84V56.496H77.1615V33.84H76.1615ZM76.1615 56.496C76.1615 57.4254 76.1189 58.1184 76.0403 58.5898L77.0267 58.7542C77.1188 58.2016 77.1615 57.444 77.1615 56.496H76.1615ZM76.0356 58.6267C76.0017 58.9996 75.8442 59.4625 75.5234 60.0239L76.3916 60.5201C76.7535 59.8868 76.98 59.283 77.0314 58.7173L76.0356 58.6267ZM75.5244 60.0221C75.2838 60.4391 74.8327 60.794 74.0855 61.0463C73.3353 61.2996 72.3233 61.436 71.0295 61.436V62.436C72.3811 62.436 73.513 62.2951 74.4055 61.9937C75.3009 61.6914 75.9912 61.2142 76.3906 60.5219L75.5244 60.0221ZM71.0295 61.436C69.7548 61.436 68.7614 61.3099 68.0299 61.0758C67.2987 60.8418 66.8761 60.5161 66.6614 60.1481L65.7976 60.6519C66.1803 61.3079 66.8563 61.7502 67.7251 62.0282C68.5936 62.3061 69.7016 62.436 71.0295 62.436V61.436ZM66.6605 60.1465C66.2879 59.5131 66.0895 58.7302 66.0895 57.776H65.0895C65.0895 58.8698 65.3178 59.8363 65.7985 60.6535L66.6605 60.1465ZM65.1554 57.5279C65.0264 57.7537 64.6944 58.1352 64.0973 58.6896L64.7777 59.4224C65.3753 58.8675 65.8113 58.3956 66.0236 58.0241L65.1554 57.5279ZM64.0973 58.6896C63.5139 59.2313 62.9564 59.6849 62.4249 60.0529L62.9941 60.8751C63.5719 60.4751 64.1664 59.9901 64.7777 59.4224L64.0973 58.6896ZM62.4379 60.0442C61.0671 60.9312 59.5825 61.372 57.9735 61.372V62.372C59.7778 62.372 61.4506 61.8741 62.9811 60.8838L62.4379 60.0442ZM101.522 28.336V27.836H101.499L101.476 27.8381L101.522 28.336ZM106.706 30.768L106.229 30.9186L106.229 30.9186L106.706 30.768ZM106.642 37.168L106.173 36.9951L106.17 37.0025L106.168 37.0099L106.642 37.168ZM105.362 38.832L105.114 38.3979L105.114 38.3979L105.362 38.832ZM101.458 39.6L101.427 40.099L101.442 40.1H101.458V39.6ZM97.362 39.344L97.3932 38.845L96.862 38.8118V39.344H97.362ZM96.722 60.144L96.2794 59.9111L96.2748 59.9204L96.722 60.144ZM94.866 61.68L94.7223 61.201L94.7154 61.2032L94.866 61.68ZM88.466 61.68L88.2848 62.146L88.2999 62.1519L88.3154 62.1568L88.466 61.68ZM86.802 60.336L86.3608 60.5713L86.3643 60.5777L86.3679 60.5841L86.802 60.336ZM86.162 58.608L85.6637 58.6495L85.6654 58.67L85.6688 58.6902L86.162 58.608ZM86.098 39.408H86.598V38.908H86.098V39.408ZM83.794 39.408L83.7557 39.9065L83.7748 39.908H83.794V39.408ZM81.426 38.64L81.0724 38.9936L81.0809 39.002L81.0897 39.01L81.426 38.64ZM86.098 28.72V29.22H86.598V28.72H86.098ZM89.618 16.432L89.992 16.7638L89.9947 16.7608L89.618 16.432ZM101.97 12.528L101.881 13.0199L101.904 13.0243L101.928 13.0263L101.97 12.528ZM103.698 13.104L103.463 13.5452L103.472 13.55L103.481 13.5545L103.698 13.104ZM104.338 22.448L104.714 22.7773L104.721 22.77L104.727 22.7626L104.338 22.448ZM101.522 23.6V24.1H101.539L101.555 24.0989L101.522 23.6ZM97.362 28.72H96.862V29.2683L97.408 29.2179L97.362 28.72ZM110.93 31.728L110.437 31.6458L110.434 31.6642L110.432 31.6827L110.93 31.728ZM111.506 30L111.066 29.763L111.059 29.7756L111.053 29.7886L111.506 30ZM120.85 29.424L120.526 29.805L120.532 29.81L120.85 29.424ZM122.002 32.176L121.502 32.1932L121.503 32.2095L121.504 32.2257L122.002 32.176ZM121.938 58.672L121.445 58.5898L121.442 58.6082L121.44 58.6267L121.938 58.672ZM121.362 60.336L120.921 60.1006L120.915 60.1124L121.362 60.336ZM111.506 60.272L111.053 60.4834L111.057 60.4929L111.062 60.5022L111.506 60.272ZM110.93 58.608L110.432 58.6533L110.434 58.6755L110.438 58.6974L110.93 58.608ZM121.362 22.064L120.921 21.8286L120.915 21.8404L121.362 22.064ZM111.506 22L111.053 22.2114L111.059 22.2235L111.065 22.2353L111.506 22ZM110.93 20.336L110.432 20.3775L110.434 20.4016L110.438 20.4254L110.93 20.336ZM110.93 15.92L110.437 15.8378L110.434 15.8562L110.432 15.8747L110.93 15.92ZM111.506 14.256L111.062 14.0258L111.059 14.0324L111.506 14.256ZM121.362 14.256L120.912 14.4729L120.916 14.4822L120.921 14.4913L121.362 14.256ZM121.938 15.984L121.44 16.0255L121.442 16.0496L121.446 16.0734L121.938 15.984ZM121.938 20.4L121.445 20.3178L121.442 20.3362L121.44 20.3547L121.938 20.4ZM101.522 28.836C104.428 28.836 105.824 29.6369 106.229 30.9186L107.183 30.6174C106.564 28.6564 104.504 27.836 101.522 27.836V28.836ZM106.229 30.9186C106.464 31.6613 106.59 32.6714 106.59 33.968H107.59C107.59 32.6193 107.46 31.496 107.183 30.6174L106.229 30.9186ZM106.59 33.968C106.59 35.2597 106.443 36.2611 106.173 36.9951L107.111 37.3409C107.438 36.4536 107.59 35.3217 107.59 33.968H106.59ZM106.168 37.0099C105.943 37.683 105.586 38.1281 105.114 38.3979L105.61 39.2661C106.333 38.8532 106.829 38.189 107.116 37.3261L106.168 37.0099ZM105.114 38.3979C104.328 38.8471 103.128 39.1 101.458 39.1V40.1C103.201 40.1 104.604 39.8409 105.61 39.2661L105.114 38.3979ZM101.489 39.101L97.3932 38.845L97.3308 39.843L101.427 40.099L101.489 39.101ZM96.862 39.344V56.496H97.862V39.344H96.862ZM96.862 56.496C96.862 58.0898 96.6495 59.2081 96.2795 59.9111L97.1645 60.3769C97.6478 59.4585 97.862 58.1449 97.862 56.496H96.862ZM96.2748 59.9204C95.955 60.56 95.4492 60.983 94.7223 61.2011L95.0097 62.1589C95.9895 61.865 96.721 61.264 97.1692 60.3676L96.2748 59.9204ZM94.7154 61.2032C93.9727 61.4378 92.9626 61.564 91.666 61.564V62.564C93.0147 62.564 94.138 62.4342 95.0166 62.1568L94.7154 61.2032ZM91.666 61.564C90.3694 61.564 89.3593 61.4378 88.6166 61.2032L88.3154 62.1568C89.194 62.4342 90.3173 62.564 91.666 62.564V61.564ZM88.6472 61.214C87.9641 60.9483 87.5099 60.5671 87.2361 60.0879L86.3679 60.5841C86.7767 61.2996 87.4319 61.8143 88.2848 62.146L88.6472 61.214ZM87.2432 60.1007C86.918 59.4911 86.7288 58.9677 86.6552 58.5258L85.6688 58.6902C85.7658 59.2723 86.0033 59.9009 86.3608 60.5713L87.2432 60.1007ZM86.6603 58.5665C86.6194 58.0756 86.598 57.3455 86.598 56.368H85.598C85.598 57.3532 85.6193 58.1164 85.6637 58.6495L86.6603 58.5665ZM86.598 56.368V39.408H85.598V56.368H86.598ZM86.098 38.908H83.794V39.908H86.098V38.908ZM83.8323 38.9095C82.7592 38.8269 82.1073 38.5836 81.7623 38.27L81.0897 39.01C81.6834 39.5497 82.6102 39.8184 83.7557 39.9065L83.8323 38.9095ZM81.7796 38.2864C81.1212 37.6281 80.71 36.2553 80.71 33.968H79.71C79.71 36.2887 80.1095 38.0306 81.0724 38.9936L81.7796 38.2864ZM80.71 33.968C80.71 32.2636 81.0193 31.0753 81.5599 30.324C82.0785 29.6031 82.8573 29.22 83.986 29.22V28.22C82.5974 28.22 81.4881 28.7115 80.7481 29.74C80.0301 30.738 79.71 32.1737 79.71 33.968H80.71ZM83.986 29.22H86.098V28.22H83.986V29.22ZM86.598 28.72V25.328H85.598V28.72H86.598ZM86.598 25.328C86.598 22.1747 87.7198 19.3252 89.992 16.7638L89.244 16.1002C86.8229 18.8294 85.598 21.9106 85.598 25.328H86.598ZM89.9947 16.7608C92.2239 14.2073 95.463 12.9 99.794 12.9V11.9C95.2503 11.9 91.7054 13.2807 89.2413 16.1032L89.9947 16.7608ZM99.794 12.9C100.77 12.9 101.458 12.9431 101.881 13.0199L102.059 12.0361C101.544 11.9423 100.781 11.9 99.794 11.9V12.9ZM101.928 13.0263C102.351 13.0615 102.86 13.2236 103.463 13.5452L103.933 12.6628C103.256 12.3017 102.613 12.0799 102.012 12.0297L101.928 13.0263ZM103.481 13.5545C103.9 13.7561 104.262 14.1748 104.522 14.9174C104.784 15.6642 104.926 16.6947 104.926 18.032H105.926C105.926 16.6386 105.78 15.4824 105.466 14.5865C105.15 13.6865 104.648 13.0066 103.915 12.6535L103.481 13.5545ZM104.926 18.032C104.926 20.0449 104.565 21.373 103.949 22.1334L104.727 22.7626C105.562 21.731 105.926 20.1151 105.926 18.032H104.926ZM103.962 22.1187C103.483 22.6664 102.692 23.0209 101.489 23.1011L101.555 24.0989C102.912 24.0084 103.999 23.5949 104.714 22.7773L103.962 22.1187ZM101.522 23.1C101.521 23.1 101.521 23.1 101.52 23.1C101.519 23.1 101.518 23.1 101.517 23.1C101.517 23.1 101.516 23.1 101.515 23.1C101.514 23.1 101.514 23.1 101.513 23.1C101.512 23.1 101.511 23.1 101.511 23.1C101.51 23.1 101.509 23.1 101.508 23.1C101.508 23.1 101.507 23.1 101.506 23.1C101.505 23.1 101.505 23.1 101.504 23.1C101.503 23.1 101.502 23.1 101.502 23.1C101.501 23.1 101.5 23.1 101.499 23.1C101.498 23.1 101.498 23.1 101.497 23.1C101.496 23.1 101.495 23.1 101.495 23.1C101.494 23.1 101.493 23.1 101.492 23.1C101.492 23.1 101.491 23.1 101.49 23.1C101.489 23.1 101.488 23.1 101.488 23.1C101.487 23.1 101.486 23.1 101.485 23.1C101.485 23.1 101.484 23.1 101.483 23.1C101.482 23.1 101.481 23.1 101.481 23.1C101.48 23.1 101.479 23.1 101.478 23.1C101.478 23.1 101.477 23.1 101.476 23.1C101.475 23.1 101.474 23.1 101.474 23.1C101.473 23.1 101.472 23.1 101.471 23.1C101.471 23.1 101.47 23.1 101.469 23.1C101.468 23.1 101.467 23.1 101.467 23.1C101.466 23.1 101.465 23.1 101.464 23.1C101.463 23.1 101.463 23.1 101.462 23.1C101.461 23.1 101.46 23.1 101.459 23.1C101.459 23.1 101.458 23.1 101.457 23.1C101.456 23.1 101.455 23.1 101.455 23.1C101.454 23.1 101.453 23.1 101.452 23.1C101.452 23.1 101.451 23.1 101.45 23.1C101.449 23.1 101.448 23.1 101.448 23.1C101.447 23.1 101.446 23.1 101.445 23.1C101.444 23.1 101.443 23.1 101.443 23.1C101.442 23.1 101.441 23.1 101.44 23.1C101.439 23.1 101.439 23.1 101.438 23.1C101.437 23.1 101.436 23.1 101.435 23.1C101.435 23.1 101.434 23.1 101.433 23.1C101.432 23.1 101.431 23.1 101.431 23.1C101.43 23.1 101.429 23.1 101.428 23.1C101.427 23.1 101.426 23.1 101.426 23.1C101.425 23.1 101.424 23.1 101.423 23.1C101.422 23.1 101.422 23.1 101.421 23.1C101.42 23.1 101.419 23.1 101.418 23.1C101.417 23.1 101.417 23.1 101.416 23.1C101.415 23.1 101.414 23.1 101.413 23.1C101.413 23.1 101.412 23.1 101.411 23.1C101.41 23.1 101.409 23.1 101.408 23.1C101.408 23.1 101.407 23.1 101.406 23.1C101.405 23.1 101.404 23.1 101.403 23.1C101.403 23.1 101.402 23.1 101.401 23.1C101.4 23.1 101.399 23.1 101.398 23.1C101.398 23.1 101.397 23.1 101.396 23.1C101.395 23.1 101.394 23.1 101.393 23.1C101.393 23.1 101.392 23.1 101.391 23.1C101.39 23.1 101.389 23.1 101.388 23.1C101.388 23.1 101.387 23.1 101.386 23.1C101.385 23.1 101.384 23.1 101.383 23.1C101.382 23.1 101.382 23.1 101.381 23.1C101.38 23.1 101.379 23.1 101.378 23.1C101.377 23.1 101.377 23.1 101.376 23.1C101.375 23.1 101.374 23.1 101.373 23.1C101.372 23.1 101.371 23.1 101.371 23.1C101.37 23.1 101.369 23.1 101.368 23.1C101.367 23.1 101.366 23.1 101.365 23.1C101.365 23.1 101.364 23.1 101.363 23.1C101.362 23.1 101.361 23.1 101.36 23.1C101.359 23.1 101.359 23.1 101.358 23.1C101.357 23.1 101.356 23.1 101.355 23.1C101.354 23.1 101.353 23.1 101.353 23.1C101.352 23.1 101.351 23.1 101.35 23.1C101.349 23.1 101.348 23.1 101.347 23.1C101.346 23.1 101.346 23.1 101.345 23.1C101.344 23.1 101.343 23.1 101.342 23.1C101.341 23.1 101.34 23.1 101.34 23.1C101.339 23.1 101.338 23.1 101.337 23.1C101.336 23.1 101.335 23.1 101.334 23.1C101.333 23.1 101.333 23.1 101.332 23.1C101.331 23.1 101.33 23.1 101.329 23.1C101.328 23.1 101.327 23.1 101.326 23.1C101.325 23.1 101.325 23.1 101.324 23.1C101.323 23.1 101.322 23.1 101.321 23.1C101.32 23.1 101.319 23.1 101.318 23.1C101.318 23.1 101.317 23.1 101.316 23.1C101.315 23.1 101.314 23.1 101.313 23.1C101.312 23.1 101.311 23.1 101.31 23.1C101.31 23.1 101.309 23.1 101.308 23.1C101.307 23.1 101.306 23.1 101.305 23.1C101.304 23.1 101.303 23.1 101.302 23.1C101.302 23.1 101.301 23.1 101.3 23.1C101.299 23.1 101.298 23.1 101.297 23.1C101.296 23.1 101.295 23.1 101.294 23.1C101.293 23.1 101.293 23.1 101.292 23.1C101.291 23.1 101.29 23.1 101.289 23.1C101.288 23.1 101.287 23.1 101.286 23.1C101.285 23.1 101.284 23.1 101.284 23.1C101.283 23.1 101.282 23.1 101.281 23.1C101.28 23.1 101.279 23.1 101.278 23.1C101.277 23.1 101.276 23.1 101.275 23.1C101.274 23.1 101.273 23.1 101.273 23.1C101.272 23.1 101.271 23.1 101.27 23.1C101.269 23.1 101.268 23.1 101.267 23.1C101.266 23.1 101.265 23.1 101.264 23.1C101.263 23.1 101.263 23.1 101.262 23.1C101.261 23.1 101.26 23.1 101.259 23.1C101.258 23.1 101.257 23.1 101.256 23.1C101.255 23.1 101.254 23.1 101.253 23.1C101.252 23.1 101.251 23.1 101.251 23.1C101.25 23.1 101.249 23.1 101.248 23.1C101.247 23.1 101.246 23.1 101.245 23.1C101.244 23.1 101.243 23.1 101.242 23.1C101.241 23.1 101.24 23.1 101.239 23.1C101.238 23.1 101.238 23.1 101.237 23.1C101.236 23.1 101.235 23.1 101.234 23.1C101.233 23.1 101.232 23.1 101.231 23.1C101.23 23.1 101.229 23.1 101.228 23.1C101.227 23.1 101.226 23.1 101.225 23.1C101.224 23.1 101.223 23.1 101.223 23.1C101.222 23.1 101.221 23.1 101.22 23.1C101.219 23.1 101.218 23.1 101.217 23.1C101.216 23.1 101.215 23.1 101.214 23.1C101.213 23.1 101.212 23.1 101.211 23.1C101.21 23.1 101.209 23.1 101.208 23.1C101.207 23.1 101.206 23.1 101.205 23.1C101.205 23.1 101.204 23.1 101.203 23.1C101.202 23.1 101.201 23.1 101.2 23.1C101.199 23.1 101.198 23.1 101.197 23.1C101.196 23.1 101.195 23.1 101.194 23.1C101.193 23.1 101.192 23.1 101.191 23.1C101.19 23.1 101.189 23.1 101.188 23.1C101.187 23.1 101.186 23.1 101.185 23.1C101.184 23.1 101.183 23.1 101.182 23.1C101.181 23.1 101.181 23.1 101.18 23.1C101.179 23.1 101.178 23.1 101.177 23.1C101.176 23.1 101.175 23.1 101.174 23.1C101.173 23.1 101.172 23.1 101.171 23.1C101.17 23.1 101.169 23.1 101.168 23.1C101.167 23.1 101.166 23.1 101.165 23.1C101.164 23.1 101.163 23.1 101.162 23.1C101.161 23.1 101.16 23.1 101.159 23.1C101.158 23.1 101.157 23.1 101.156 23.1C101.155 23.1 101.154 23.1 101.153 23.1C101.152 23.1 101.151 23.1 101.15 23.1C101.149 23.1 101.148 23.1 101.147 23.1C101.146 23.1 101.145 23.1 101.144 23.1C101.143 23.1 101.142 23.1 101.141 23.1C101.14 23.1 101.139 23.1 101.138 23.1C101.138 23.1 101.137 23.1 101.136 23.1C101.135 23.1 101.134 23.1 101.133 23.1C101.132 23.1 101.131 23.1 101.13 23.1C101.129 23.1 101.128 23.1 101.127 23.1C101.126 23.1 101.125 23.1 101.124 23.1C101.123 23.1 101.122 23.1 101.121 23.1C101.12 23.1 101.119 23.1 101.118 23.1C101.117 23.1 101.116 23.1 101.115 23.1C101.114 23.1 101.113 23.1 101.112 23.1C101.111 23.1 101.11 23.1 101.109 23.1C101.108 23.1 101.107 23.1 101.106 23.1C101.105 23.1 101.104 23.1 101.103 23.1C101.102 23.1 101.101 23.1 101.1 23.1C101.098 23.1 101.097 23.1 101.096 23.1C101.095 23.1 101.094 23.1 101.093 23.1C101.092 23.1 101.091 23.1 101.09 23.1C101.089 23.1 101.088 23.1 101.087 23.1C101.086 23.1 101.085 23.1 101.084 23.1C101.083 23.1 101.082 23.1 101.081 23.1C101.08 23.1 101.079 23.1 101.078 23.1C101.077 23.1 101.076 23.1 101.075 23.1C101.074 23.1 101.073 23.1 101.072 23.1C101.071 23.1 101.07 23.1 101.069 23.1C101.068 23.1 101.067 23.1 101.066 23.1C101.065 23.1 101.064 23.1 101.063 23.1C101.062 23.1 101.061 23.1 101.06 23.1C101.059 23.1 101.058 23.1 101.057 23.1C101.056 23.1 101.055 23.1 101.053 23.1C101.052 23.1 101.051 23.1 101.05 23.1C101.049 23.1 101.048 23.1 101.047 23.1C101.046 23.1 101.045 23.1 101.044 23.1C101.043 23.1 101.042 23.1 101.041 23.1C101.04 23.1 101.039 23.1 101.038 23.1C101.037 23.1 101.036 23.1 101.035 23.1C101.034 23.1 101.033 23.1 101.032 23.1C101.031 23.1 101.03 23.1 101.028 23.1C101.027 23.1 101.026 23.1 101.025 23.1C101.024 23.1 101.023 23.1 101.022 23.1C101.021 23.1 101.02 23.1 101.019 23.1C101.018 23.1 101.017 23.1 101.016 23.1C101.015 23.1 101.014 23.1 101.013 23.1C101.012 23.1 101.011 23.1 101.01 23.1C101.008 23.1 101.007 23.1 101.006 23.1C101.005 23.1 101.004 23.1 101.003 23.1C101.002 23.1 101.001 23.1 101 23.1C100.999 23.1 100.998 23.1 100.997 23.1C100.996 23.1 100.995 23.1 100.994 23.1C100.993 23.1 100.991 23.1 100.99 23.1C100.989 23.1 100.988 23.1 100.987 23.1C100.986 23.1 100.985 23.1 100.984 23.1C100.983 23.1 100.982 23.1 100.981 23.1C100.98 23.1 100.979 23.1 100.978 23.1C100.976 23.1 100.975 23.1 100.974 23.1C100.973 23.1 100.972 23.1 100.971 23.1C100.97 23.1 100.969 23.1 100.968 23.1C100.967 23.1 100.966 23.1 100.965 23.1C100.964 23.1 100.962 23.1 100.961 23.1C100.96 23.1 100.959 23.1 100.958 23.1C100.957 23.1 100.956 23.1 100.955 23.1C100.954 23.1 100.953 23.1 100.952 23.1C100.951 23.1 100.949 23.1 100.948 23.1C100.947 23.1 100.946 23.1 100.945 23.1C100.944 23.1 100.943 23.1 100.942 23.1C100.941 23.1 100.94 23.1 100.939 23.1C100.937 23.1 100.936 23.1 100.935 23.1C100.934 23.1 100.933 23.1 100.932 23.1C100.931 23.1 100.93 23.1 100.929 23.1C100.928 23.1 100.926 23.1 100.925 23.1C100.924 23.1 100.923 23.1 100.922 23.1C100.921 23.1 100.92 23.1 100.919 23.1C100.918 23.1 100.917 23.1 100.915 23.1C100.914 23.1 100.913 23.1 100.912 23.1C100.911 23.1 100.91 23.1 100.909 23.1C100.908 23.1 100.907 23.1 100.906 23.1C100.904 23.1 100.903 23.1 100.902 23.1C100.901 23.1 100.9 23.1 100.899 23.1C100.898 23.1 100.897 23.1 100.896 23.1C100.894 23.1 100.893 23.1 100.892 23.1C100.891 23.1 100.89 23.1 100.889 23.1C100.888 23.1 100.887 23.1 100.885 23.1C100.884 23.1 100.883 23.1 100.882 23.1C100.881 23.1 100.88 23.1 100.879 23.1C100.878 23.1 100.876 23.1 100.875 23.1C100.874 23.1 100.873 23.1 100.872 23.1C100.871 23.1 100.87 23.1 100.869 23.1C100.867 23.1 100.866 23.1 100.865 23.1C100.864 23.1 100.863 23.1 100.862 23.1C100.861 23.1 100.86 23.1 100.858 23.1C100.857 23.1 100.856 23.1 100.855 23.1C100.854 23.1 100.853 23.1 100.852 23.1C100.85 23.1 100.849 23.1 100.848 23.1C100.847 23.1 100.846 23.1 100.845 23.1C100.844 23.1 100.843 23.1 100.841 23.1C100.84 23.1 100.839 23.1 100.838 23.1C100.837 23.1 100.836 23.1 100.835 23.1C100.833 23.1 100.832 23.1 100.831 23.1C100.83 23.1 100.829 23.1 100.828 23.1C100.827 23.1 100.825 23.1 100.824 23.1C100.823 23.1 100.822 23.1 100.821 23.1C100.82 23.1 100.818 23.1 100.817 23.1C100.816 23.1 100.815 23.1 100.814 23.1C100.813 23.1 100.812 23.1 100.81 23.1C100.809 23.1 100.808 23.1 100.807 23.1C100.806 23.1 100.805 23.1 100.803 23.1C100.802 23.1 100.801 23.1 100.8 23.1C100.799 23.1 100.798 23.1 100.796 23.1C100.795 23.1 100.794 23.1 100.793 23.1C100.792 23.1 100.791 23.1 100.789 23.1C100.788 23.1 100.787 23.1 100.786 23.1C100.785 23.1 100.784 23.1 100.782 23.1C100.781 23.1 100.78 23.1 100.779 23.1C100.778 23.1 100.777 23.1 100.775 23.1C100.774 23.1 100.773 23.1 100.772 23.1C100.771 23.1 100.77 23.1 100.768 23.1C100.767 23.1 100.766 23.1 100.765 23.1C100.764 23.1 100.763 23.1 100.761 23.1C100.76 23.1 100.759 23.1 100.758 23.1C100.757 23.1 100.755 23.1 100.754 23.1C100.753 23.1 100.752 23.1 100.751 23.1C100.75 23.1 100.748 23.1 100.747 23.1C100.746 23.1 100.745 23.1 100.744 23.1C100.742 23.1 100.741 23.1 100.74 23.1C100.739 23.1 100.738 23.1 100.737 23.1C100.735 23.1 100.734 23.1 100.733 23.1C100.732 23.1 100.731 23.1 100.729 23.1C100.728 23.1 100.727 23.1 100.726 23.1C100.725 23.1 100.723 23.1 100.722 23.1C100.721 23.1 100.72 23.1 100.719 23.1C100.717 23.1 100.716 23.1 100.715 23.1C100.714 23.1 100.713 23.1 100.711 23.1C100.71 23.1 100.709 23.1 100.708 23.1C100.707 23.1 100.705 23.1 100.704 23.1C100.703 23.1 100.702 23.1 100.701 23.1C100.699 23.1 100.698 23.1 100.697 23.1C100.696 23.1 100.695 23.1 100.693 23.1C100.692 23.1 100.691 23.1 100.69 23.1C100.689 23.1 100.687 23.1 100.686 23.1C100.685 23.1 100.684 23.1 100.682 23.1C100.681 23.1 100.68 23.1 100.679 23.1C100.678 23.1 100.676 23.1 100.675 23.1C100.674 23.1 100.673 23.1 100.672 23.1C100.67 23.1 100.669 23.1 100.668 23.1C100.667 23.1 100.665 23.1 100.664 23.1C100.663 23.1 100.662 23.1 100.661 23.1C100.659 23.1 100.658 23.1 100.657 23.1C100.656 23.1 100.654 23.1 100.653 23.1C100.652 23.1 100.651 23.1 100.649 23.1C100.648 23.1 100.647 23.1 100.646 23.1C100.645 23.1 100.643 23.1 100.642 23.1C100.641 23.1 100.64 23.1 100.638 23.1C100.637 23.1 100.636 23.1 100.635 23.1C100.633 23.1 100.632 23.1 100.631 23.1C100.63 23.1 100.629 23.1 100.627 23.1C100.626 23.1 100.625 23.1 100.624 23.1C100.622 23.1 100.621 23.1 100.62 23.1C100.619 23.1 100.617 23.1 100.616 23.1C100.615 23.1 100.614 23.1 100.612 23.1C100.611 23.1 100.61 23.1 100.609 23.1C100.607 23.1 100.606 23.1 100.605 23.1C100.604 23.1 100.602 23.1 100.601 23.1C100.6 23.1 100.599 23.1 100.597 23.1C100.596 23.1 100.595 23.1 100.594 23.1C100.592 23.1 100.591 23.1 100.59 23.1C100.589 23.1 100.587 23.1 100.586 23.1C100.585 23.1 100.584 23.1 100.582 23.1C100.581 23.1 100.58 23.1 100.579 23.1C100.577 23.1 100.576 23.1 100.575 23.1C100.574 23.1 100.572 23.1 100.571 23.1C100.57 23.1 100.568 23.1 100.567 23.1C100.566 23.1 100.565 23.1 100.563 23.1C100.562 23.1 100.561 23.1 100.56 23.1C100.558 23.1 100.557 23.1 100.556 23.1C100.555 23.1 100.553 23.1 100.552 23.1C100.551 23.1 100.549 23.1 100.548 23.1C100.547 23.1 100.546 23.1 100.544 23.1C100.543 23.1 100.542 23.1 100.541 23.1C100.539 23.1 100.538 23.1 100.537 23.1C100.535 23.1 100.534 23.1 100.533 23.1C100.532 23.1 100.53 23.1 100.529 23.1C100.528 23.1 100.526 23.1 100.525 23.1C100.524 23.1 100.523 23.1 100.521 23.1C100.52 23.1 100.519 23.1 100.517 23.1C100.516 23.1 100.515 23.1 100.514 23.1C100.512 23.1 100.511 23.1 100.51 23.1C100.508 23.1 100.507 23.1 100.506 23.1C100.505 23.1 100.503 23.1 100.502 23.1C100.501 23.1 100.499 23.1 100.498 23.1C100.497 23.1 100.496 23.1 100.494 23.1C100.493 23.1 100.492 23.1 100.49 23.1C100.489 23.1 100.488 23.1 100.486 23.1C100.485 23.1 100.484 23.1 100.483 23.1C100.481 23.1 100.48 23.1 100.479 23.1C100.477 23.1 100.476 23.1 100.475 23.1C100.473 23.1 100.472 23.1 100.471 23.1C100.47 23.1 100.468 23.1 100.467 23.1C100.466 23.1 100.464 23.1 100.463 23.1C100.462 23.1 100.46 23.1 100.459 23.1C100.458 23.1 100.456 23.1 100.455 23.1C100.454 23.1 100.453 23.1 100.451 23.1C100.45 23.1 100.449 23.1 100.447 23.1C100.446 23.1 100.445 23.1 100.443 23.1C100.442 23.1 100.441 23.1 100.439 23.1C100.438 23.1 100.437 23.1 100.435 23.1C100.434 23.1 100.433 23.1 100.431 23.1C100.43 23.1 100.429 23.1 100.428 23.1C100.426 23.1 100.425 23.1 100.424 23.1C100.422 23.1 100.421 23.1 100.42 23.1C100.418 23.1 100.417 23.1 100.416 23.1C100.414 23.1 100.413 23.1 100.412 23.1C100.41 23.1 100.409 23.1 100.408 23.1C100.406 23.1 100.405 23.1 100.404 23.1C100.402 23.1 100.401 23.1 100.4 23.1C100.398 23.1 100.397 23.1 100.396 23.1C100.394 23.1 100.393 23.1 100.392 23.1C100.39 23.1 100.389 23.1 100.388 23.1C100.386 23.1 100.385 23.1 100.384 23.1C100.382 23.1 100.381 23.1 100.38 23.1C100.378 23.1 100.377 23.1 100.375 23.1C100.374 23.1 100.373 23.1 100.371 23.1C100.37 23.1 100.369 23.1 100.367 23.1C100.366 23.1 100.365 23.1 100.363 23.1C100.362 23.1 100.361 23.1 100.359 23.1C100.358 23.1 100.357 23.1 100.355 23.1C100.354 23.1 100.353 23.1 100.351 23.1C100.35 23.1 100.349 23.1 100.347 23.1C100.346 23.1 100.344 23.1 100.343 23.1C100.342 23.1 100.34 23.1 100.339 23.1C100.338 23.1 100.336 23.1 100.335 23.1C100.334 23.1 100.332 23.1 100.331 23.1C100.329 23.1 100.328 23.1 100.327 23.1C100.325 23.1 100.324 23.1 100.323 23.1C100.321 23.1 100.32 23.1 100.319 23.1C100.317 23.1 100.316 23.1 100.314 23.1C100.313 23.1 100.312 23.1 100.31 23.1C100.309 23.1 100.308 23.1 100.306 23.1C100.305 23.1 100.303 23.1 100.302 23.1C100.301 23.1 100.299 23.1 100.298 23.1C100.297 23.1 100.295 23.1 100.294 23.1C100.292 23.1 100.291 23.1 100.29 23.1C100.288 23.1 100.287 23.1 100.286 23.1C100.284 23.1 100.283 23.1 100.281 23.1C100.28 23.1 100.279 23.1 100.277 23.1C100.276 23.1 100.275 23.1 100.273 23.1C100.272 23.1 100.27 23.1 100.269 23.1C100.268 23.1 100.266 23.1 100.265 23.1C100.263 23.1 100.262 23.1 100.261 23.1C100.259 23.1 100.258 23.1 100.257 23.1C100.255 23.1 100.254 23.1 100.252 23.1C100.251 23.1 100.25 23.1 100.248 23.1C100.247 23.1 100.245 23.1 100.244 23.1C100.243 23.1 100.241 23.1 100.24 23.1C100.238 23.1 100.237 23.1 100.236 23.1C100.234 23.1 100.233 23.1 100.231 23.1C100.23 23.1 100.229 23.1 100.227 23.1C100.226 23.1 100.224 23.1 100.223 23.1C100.222 23.1 100.22 23.1 100.219 23.1C100.217 23.1 100.216 23.1 100.215 23.1C100.213 23.1 100.212 23.1 100.21 23.1C100.209 23.1 100.207 23.1 100.206 23.1C100.205 23.1 100.203 23.1 100.202 23.1C100.2 23.1 100.199 23.1 100.198 23.1C100.196 23.1 100.195 23.1 100.193 23.1C100.192 23.1 100.191 23.1 100.189 23.1C100.188 23.1 100.186 23.1 100.185 23.1C100.183 23.1 100.182 23.1 100.181 23.1C100.179 23.1 100.178 23.1 100.176 23.1C100.175 23.1 100.173 23.1 100.172 23.1C100.171 23.1 100.169 23.1 100.168 23.1C100.166 23.1 100.165 23.1 100.164 23.1C100.162 23.1 100.161 23.1 100.159 23.1C100.158 23.1 100.156 23.1 100.155 23.1C100.153 23.1 100.152 23.1 100.151 23.1C100.149 23.1 100.148 23.1 100.146 23.1C100.145 23.1 100.143 23.1 100.142 23.1C100.141 23.1 100.139 23.1 100.138 23.1C100.136 23.1 100.135 23.1 100.133 23.1C100.132 23.1 100.131 23.1 100.129 23.1C100.128 23.1 100.126 23.1 100.125 23.1C100.123 23.1 100.122 23.1 100.12 23.1C100.119 23.1 100.118 23.1 100.116 23.1C100.115 23.1 100.113 23.1 100.112 23.1C100.11 23.1 100.109 23.1 100.107 23.1C100.106 23.1 100.105 23.1 100.103 23.1C100.102 23.1 100.1 23.1 100.099 23.1C100.097 23.1 100.096 23.1 100.094 23.1C100.093 23.1 100.091 23.1 100.09 23.1C100.089 23.1 100.087 23.1 100.086 23.1C100.084 23.1 100.083 23.1 100.081 23.1C100.08 23.1 100.078 23.1 100.077 23.1C100.075 23.1 100.074 23.1 100.073 23.1C100.071 23.1 100.07 23.1 100.068 23.1C100.067 23.1 100.065 23.1 100.064 23.1C100.062 23.1 100.061 23.1 100.059 23.1C100.058 23.1 100.056 23.1 100.055 23.1C100.053 23.1 100.052 23.1 100.051 23.1C100.049 23.1 100.048 23.1 100.046 23.1C100.045 23.1 100.043 23.1 100.042 23.1C100.04 23.1 100.039 23.1 100.037 23.1C100.036 23.1 100.034 23.1 100.033 23.1C100.031 23.1 100.03 23.1 100.028 23.1C100.027 23.1 100.025 23.1 100.024 23.1C100.023 23.1 100.021 23.1 100.02 23.1C100.018 23.1 100.017 23.1 100.015 23.1C100.014 23.1 100.012 23.1 100.011 23.1C100.009 23.1 100.008 23.1 100.006 23.1C100.005 23.1 100.003 23.1 100.002 23.1C100 23.1 99.9988 23.1 99.9973 23.1C99.9958 23.1 99.9943 23.1 99.9928 23.1C99.9913 23.1 99.9898 23.1 99.9883 23.1C99.9869 23.1 99.9854 23.1 99.9839 23.1C99.9824 23.1 99.9809 23.1 99.9794 23.1C99.9779 23.1 99.9764 23.1 99.9749 23.1C99.9734 23.1 99.9719 23.1 99.9704 23.1C99.9689 23.1 99.9674 23.1 99.9659 23.1C99.9644 23.1 99.9629 23.1 99.9614 23.1C99.9599 23.1 99.9584 23.1 99.9569 23.1C99.9554 23.1 99.9539 23.1 99.9524 23.1C99.9509 23.1 99.9494 23.1 99.9479 23.1C99.9464 23.1 99.9448 23.1 99.9433 23.1C99.9418 23.1 99.9403 23.1 99.9388 23.1C99.9373 23.1 99.9358 23.1 99.9343 23.1C99.9328 23.1 99.9313 23.1 99.9297 23.1C99.9282 23.1 99.9267 23.1 99.9252 23.1C99.9237 23.1 99.9222 23.1 99.9206 23.1C99.9191 23.1 99.9176 23.1 99.9161 23.1C99.9146 23.1 99.9131 23.1 99.9115 23.1C99.91 23.1 99.9085 23.1 99.907 23.1C99.9055 23.1 99.9039 23.1 99.9024 23.1C99.9009 23.1 99.8994 23.1 99.8978 23.1C99.8963 23.1 99.8948 23.1 99.8933 23.1C99.8917 23.1 99.8902 23.1 99.8887 23.1C99.8872 23.1 99.8856 23.1 99.8841 23.1C99.8826 23.1 99.881 23.1 99.8795 23.1C99.878 23.1 99.8764 23.1 99.8749 23.1C99.8734 23.1 99.8718 23.1 99.8703 23.1C99.8688 23.1 99.8672 23.1 99.8657 23.1C99.8642 23.1 99.8626 23.1 99.8611 23.1C99.8595 23.1 99.858 23.1 99.8565 23.1C99.8549 23.1 99.8534 23.1 99.8519 23.1C99.8503 23.1 99.8488 23.1 99.8472 23.1C99.8457 23.1 99.8441 23.1 99.8426 23.1C99.8411 23.1 99.8395 23.1 99.838 23.1C99.8364 23.1 99.8349 23.1 99.8333 23.1C99.8318 23.1 99.8302 23.1 99.8287 23.1C99.8271 23.1 99.8256 23.1 99.824 23.1C99.8225 23.1 99.8209 23.1 99.8194 23.1C99.8178 23.1 99.8163 23.1 99.8147 23.1C99.8132 23.1 99.8116 23.1 99.81 23.1C99.8085 23.1 99.8069 23.1 99.8054 23.1C99.8038 23.1 99.8023 23.1 99.8007 23.1C99.7991 23.1 99.7976 23.1 99.796 23.1C99.7945 23.1 99.7929 23.1 99.7913 23.1C99.7898 23.1 99.7882 23.1 99.7866 23.1C99.7851 23.1 99.7835 23.1 99.782 23.1C99.7804 23.1 99.7788 23.1 99.7773 23.1C99.7757 23.1 99.7741 23.1 99.7726 23.1C99.771 23.1 99.7694 23.1 99.7678 23.1C99.7663 23.1 99.7647 23.1 99.7631 23.1C99.7616 23.1 99.76 23.1 99.7584 23.1C99.7568 23.1 99.7553 23.1 99.7537 23.1C99.7521 23.1 99.7505 23.1 99.749 23.1C99.7474 23.1 99.7458 23.1 99.7442 23.1C99.7427 23.1 99.7411 23.1 99.7395 23.1C99.7379 23.1 99.7363 23.1 99.7347 23.1C99.7332 23.1 99.7316 23.1 99.73 23.1V24.1C99.7316 24.1 99.7332 24.1 99.7347 24.1C99.7363 24.1 99.7379 24.1 99.7395 24.1C99.7411 24.1 99.7427 24.1 99.7442 24.1C99.7458 24.1 99.7474 24.1 99.749 24.1C99.7505 24.1 99.7521 24.1 99.7537 24.1C99.7553 24.1 99.7568 24.1 99.7584 24.1C99.76 24.1 99.7616 24.1 99.7631 24.1C99.7647 24.1 99.7663 24.1 99.7678 24.1C99.7694 24.1 99.771 24.1 99.7726 24.1C99.7741 24.1 99.7757 24.1 99.7773 24.1C99.7788 24.1 99.7804 24.1 99.782 24.1C99.7835 24.1 99.7851 24.1 99.7866 24.1C99.7882 24.1 99.7898 24.1 99.7913 24.1C99.7929 24.1 99.7945 24.1 99.796 24.1C99.7976 24.1 99.7991 24.1 99.8007 24.1C99.8023 24.1 99.8038 24.1 99.8054 24.1C99.8069 24.1 99.8085 24.1 99.81 24.1C99.8116 24.1 99.8132 24.1 99.8147 24.1C99.8163 24.1 99.8178 24.1 99.8194 24.1C99.8209 24.1 99.8225 24.1 99.824 24.1C99.8256 24.1 99.8271 24.1 99.8287 24.1C99.8302 24.1 99.8318 24.1 99.8333 24.1C99.8349 24.1 99.8364 24.1 99.838 24.1C99.8395 24.1 99.8411 24.1 99.8426 24.1C99.8441 24.1 99.8457 24.1 99.8472 24.1C99.8488 24.1 99.8503 24.1 99.8519 24.1C99.8534 24.1 99.8549 24.1 99.8565 24.1C99.858 24.1 99.8595 24.1 99.8611 24.1C99.8626 24.1 99.8642 24.1 99.8657 24.1C99.8672 24.1 99.8688 24.1 99.8703 24.1C99.8718 24.1 99.8734 24.1 99.8749 24.1C99.8764 24.1 99.878 24.1 99.8795 24.1C99.881 24.1 99.8826 24.1 99.8841 24.1C99.8856 24.1 99.8872 24.1 99.8887 24.1C99.8902 24.1 99.8917 24.1 99.8933 24.1C99.8948 24.1 99.8963 24.1 99.8978 24.1C99.8994 24.1 99.9009 24.1 99.9024 24.1C99.9039 24.1 99.9055 24.1 99.907 24.1C99.9085 24.1 99.91 24.1 99.9115 24.1C99.9131 24.1 99.9146 24.1 99.9161 24.1C99.9176 24.1 99.9191 24.1 99.9206 24.1C99.9222 24.1 99.9237 24.1 99.9252 24.1C99.9267 24.1 99.9282 24.1 99.9297 24.1C99.9313 24.1 99.9328 24.1 99.9343 24.1C99.9358 24.1 99.9373 24.1 99.9388 24.1C99.9403 24.1 99.9418 24.1 99.9433 24.1C99.9448 24.1 99.9464 24.1 99.9479 24.1C99.9494 24.1 99.9509 24.1 99.9524 24.1C99.9539 24.1 99.9554 24.1 99.9569 24.1C99.9584 24.1 99.9599 24.1 99.9614 24.1C99.9629 24.1 99.9644 24.1 99.9659 24.1C99.9674 24.1 99.9689 24.1 99.9704 24.1C99.9719 24.1 99.9734 24.1 99.9749 24.1C99.9764 24.1 99.9779 24.1 99.9794 24.1C99.9809 24.1 99.9824 24.1 99.9839 24.1C99.9854 24.1 99.9869 24.1 99.9883 24.1C99.9898 24.1 99.9913 24.1 99.9928 24.1C99.9943 24.1 99.9958 24.1 99.9973 24.1C99.9988 24.1 100 24.1 100.002 24.1C100.003 24.1 100.005 24.1 100.006 24.1C100.008 24.1 100.009 24.1 100.011 24.1C100.012 24.1 100.014 24.1 100.015 24.1C100.017 24.1 100.018 24.1 100.02 24.1C100.021 24.1 100.023 24.1 100.024 24.1C100.025 24.1 100.027 24.1 100.028 24.1C100.03 24.1 100.031 24.1 100.033 24.1C100.034 24.1 100.036 24.1 100.037 24.1C100.039 24.1 100.04 24.1 100.042 24.1C100.043 24.1 100.045 24.1 100.046 24.1C100.048 24.1 100.049 24.1 100.051 24.1C100.052 24.1 100.053 24.1 100.055 24.1C100.056 24.1 100.058 24.1 100.059 24.1C100.061 24.1 100.062 24.1 100.064 24.1C100.065 24.1 100.067 24.1 100.068 24.1C100.07 24.1 100.071 24.1 100.073 24.1C100.074 24.1 100.075 24.1 100.077 24.1C100.078 24.1 100.08 24.1 100.081 24.1C100.083 24.1 100.084 24.1 100.086 24.1C100.087 24.1 100.089 24.1 100.09 24.1C100.091 24.1 100.093 24.1 100.094 24.1C100.096 24.1 100.097 24.1 100.099 24.1C100.1 24.1 100.102 24.1 100.103 24.1C100.105 24.1 100.106 24.1 100.107 24.1C100.109 24.1 100.11 24.1 100.112 24.1C100.113 24.1 100.115 24.1 100.116 24.1C100.118 24.1 100.119 24.1 100.12 24.1C100.122 24.1 100.123 24.1 100.125 24.1C100.126 24.1 100.128 24.1 100.129 24.1C100.131 24.1 100.132 24.1 100.133 24.1C100.135 24.1 100.136 24.1 100.138 24.1C100.139 24.1 100.141 24.1 100.142 24.1C100.143 24.1 100.145 24.1 100.146 24.1C100.148 24.1 100.149 24.1 100.151 24.1C100.152 24.1 100.153 24.1 100.155 24.1C100.156 24.1 100.158 24.1 100.159 24.1C100.161 24.1 100.162 24.1 100.164 24.1C100.165 24.1 100.166 24.1 100.168 24.1C100.169 24.1 100.171 24.1 100.172 24.1C100.173 24.1 100.175 24.1 100.176 24.1C100.178 24.1 100.179 24.1 100.181 24.1C100.182 24.1 100.183 24.1 100.185 24.1C100.186 24.1 100.188 24.1 100.189 24.1C100.191 24.1 100.192 24.1 100.193 24.1C100.195 24.1 100.196 24.1 100.198 24.1C100.199 24.1 100.2 24.1 100.202 24.1C100.203 24.1 100.205 24.1 100.206 24.1C100.207 24.1 100.209 24.1 100.21 24.1C100.212 24.1 100.213 24.1 100.215 24.1C100.216 24.1 100.217 24.1 100.219 24.1C100.22 24.1 100.222 24.1 100.223 24.1C100.224 24.1 100.226 24.1 100.227 24.1C100.229 24.1 100.23 24.1 100.231 24.1C100.233 24.1 100.234 24.1 100.236 24.1C100.237 24.1 100.238 24.1 100.24 24.1C100.241 24.1 100.243 24.1 100.244 24.1C100.245 24.1 100.247 24.1 100.248 24.1C100.25 24.1 100.251 24.1 100.252 24.1C100.254 24.1 100.255 24.1 100.257 24.1C100.258 24.1 100.259 24.1 100.261 24.1C100.262 24.1 100.263 24.1 100.265 24.1C100.266 24.1 100.268 24.1 100.269 24.1C100.27 24.1 100.272 24.1 100.273 24.1C100.275 24.1 100.276 24.1 100.277 24.1C100.279 24.1 100.28 24.1 100.281 24.1C100.283 24.1 100.284 24.1 100.286 24.1C100.287 24.1 100.288 24.1 100.29 24.1C100.291 24.1 100.292 24.1 100.294 24.1C100.295 24.1 100.297 24.1 100.298 24.1C100.299 24.1 100.301 24.1 100.302 24.1C100.303 24.1 100.305 24.1 100.306 24.1C100.308 24.1 100.309 24.1 100.31 24.1C100.312 24.1 100.313 24.1 100.314 24.1C100.316 24.1 100.317 24.1 100.319 24.1C100.32 24.1 100.321 24.1 100.323 24.1C100.324 24.1 100.325 24.1 100.327 24.1C100.328 24.1 100.329 24.1 100.331 24.1C100.332 24.1 100.334 24.1 100.335 24.1C100.336 24.1 100.338 24.1 100.339 24.1C100.34 24.1 100.342 24.1 100.343 24.1C100.344 24.1 100.346 24.1 100.347 24.1C100.349 24.1 100.35 24.1 100.351 24.1C100.353 24.1 100.354 24.1 100.355 24.1C100.357 24.1 100.358 24.1 100.359 24.1C100.361 24.1 100.362 24.1 100.363 24.1C100.365 24.1 100.366 24.1 100.367 24.1C100.369 24.1 100.37 24.1 100.371 24.1C100.373 24.1 100.374 24.1 100.375 24.1C100.377 24.1 100.378 24.1 100.38 24.1C100.381 24.1 100.382 24.1 100.384 24.1C100.385 24.1 100.386 24.1 100.388 24.1C100.389 24.1 100.39 24.1 100.392 24.1C100.393 24.1 100.394 24.1 100.396 24.1C100.397 24.1 100.398 24.1 100.4 24.1C100.401 24.1 100.402 24.1 100.404 24.1C100.405 24.1 100.406 24.1 100.408 24.1C100.409 24.1 100.41 24.1 100.412 24.1C100.413 24.1 100.414 24.1 100.416 24.1C100.417 24.1 100.418 24.1 100.42 24.1C100.421 24.1 100.422 24.1 100.424 24.1C100.425 24.1 100.426 24.1 100.428 24.1C100.429 24.1 100.43 24.1 100.431 24.1C100.433 24.1 100.434 24.1 100.435 24.1C100.437 24.1 100.438 24.1 100.439 24.1C100.441 24.1 100.442 24.1 100.443 24.1C100.445 24.1 100.446 24.1 100.447 24.1C100.449 24.1 100.45 24.1 100.451 24.1C100.453 24.1 100.454 24.1 100.455 24.1C100.456 24.1 100.458 24.1 100.459 24.1C100.46 24.1 100.462 24.1 100.463 24.1C100.464 24.1 100.466 24.1 100.467 24.1C100.468 24.1 100.47 24.1 100.471 24.1C100.472 24.1 100.473 24.1 100.475 24.1C100.476 24.1 100.477 24.1 100.479 24.1C100.48 24.1 100.481 24.1 100.483 24.1C100.484 24.1 100.485 24.1 100.486 24.1C100.488 24.1 100.489 24.1 100.49 24.1C100.492 24.1 100.493 24.1 100.494 24.1C100.496 24.1 100.497 24.1 100.498 24.1C100.499 24.1 100.501 24.1 100.502 24.1C100.503 24.1 100.505 24.1 100.506 24.1C100.507 24.1 100.508 24.1 100.51 24.1C100.511 24.1 100.512 24.1 100.514 24.1C100.515 24.1 100.516 24.1 100.517 24.1C100.519 24.1 100.52 24.1 100.521 24.1C100.523 24.1 100.524 24.1 100.525 24.1C100.526 24.1 100.528 24.1 100.529 24.1C100.53 24.1 100.532 24.1 100.533 24.1C100.534 24.1 100.535 24.1 100.537 24.1C100.538 24.1 100.539 24.1 100.541 24.1C100.542 24.1 100.543 24.1 100.544 24.1C100.546 24.1 100.547 24.1 100.548 24.1C100.549 24.1 100.551 24.1 100.552 24.1C100.553 24.1 100.555 24.1 100.556 24.1C100.557 24.1 100.558 24.1 100.56 24.1C100.561 24.1 100.562 24.1 100.563 24.1C100.565 24.1 100.566 24.1 100.567 24.1C100.568 24.1 100.57 24.1 100.571 24.1C100.572 24.1 100.574 24.1 100.575 24.1C100.576 24.1 100.577 24.1 100.579 24.1C100.58 24.1 100.581 24.1 100.582 24.1C100.584 24.1 100.585 24.1 100.586 24.1C100.587 24.1 100.589 24.1 100.59 24.1C100.591 24.1 100.592 24.1 100.594 24.1C100.595 24.1 100.596 24.1 100.597 24.1C100.599 24.1 100.6 24.1 100.601 24.1C100.602 24.1 100.604 24.1 100.605 24.1C100.606 24.1 100.607 24.1 100.609 24.1C100.61 24.1 100.611 24.1 100.612 24.1C100.614 24.1 100.615 24.1 100.616 24.1C100.617 24.1 100.619 24.1 100.62 24.1C100.621 24.1 100.622 24.1 100.624 24.1C100.625 24.1 100.626 24.1 100.627 24.1C100.629 24.1 100.63 24.1 100.631 24.1C100.632 24.1 100.633 24.1 100.635 24.1C100.636 24.1 100.637 24.1 100.638 24.1C100.64 24.1 100.641 24.1 100.642 24.1C100.643 24.1 100.645 24.1 100.646 24.1C100.647 24.1 100.648 24.1 100.649 24.1C100.651 24.1 100.652 24.1 100.653 24.1C100.654 24.1 100.656 24.1 100.657 24.1C100.658 24.1 100.659 24.1 100.661 24.1C100.662 24.1 100.663 24.1 100.664 24.1C100.665 24.1 100.667 24.1 100.668 24.1C100.669 24.1 100.67 24.1 100.672 24.1C100.673 24.1 100.674 24.1 100.675 24.1C100.676 24.1 100.678 24.1 100.679 24.1C100.68 24.1 100.681 24.1 100.682 24.1C100.684 24.1 100.685 24.1 100.686 24.1C100.687 24.1 100.689 24.1 100.69 24.1C100.691 24.1 100.692 24.1 100.693 24.1C100.695 24.1 100.696 24.1 100.697 24.1C100.698 24.1 100.699 24.1 100.701 24.1C100.702 24.1 100.703 24.1 100.704 24.1C100.705 24.1 100.707 24.1 100.708 24.1C100.709 24.1 100.71 24.1 100.711 24.1C100.713 24.1 100.714 24.1 100.715 24.1C100.716 24.1 100.717 24.1 100.719 24.1C100.72 24.1 100.721 24.1 100.722 24.1C100.723 24.1 100.725 24.1 100.726 24.1C100.727 24.1 100.728 24.1 100.729 24.1C100.731 24.1 100.732 24.1 100.733 24.1C100.734 24.1 100.735 24.1 100.737 24.1C100.738 24.1 100.739 24.1 100.74 24.1C100.741 24.1 100.742 24.1 100.744 24.1C100.745 24.1 100.746 24.1 100.747 24.1C100.748 24.1 100.75 24.1 100.751 24.1C100.752 24.1 100.753 24.1 100.754 24.1C100.755 24.1 100.757 24.1 100.758 24.1C100.759 24.1 100.76 24.1 100.761 24.1C100.763 24.1 100.764 24.1 100.765 24.1C100.766 24.1 100.767 24.1 100.768 24.1C100.77 24.1 100.771 24.1 100.772 24.1C100.773 24.1 100.774 24.1 100.775 24.1C100.777 24.1 100.778 24.1 100.779 24.1C100.78 24.1 100.781 24.1 100.782 24.1C100.784 24.1 100.785 24.1 100.786 24.1C100.787 24.1 100.788 24.1 100.789 24.1C100.791 24.1 100.792 24.1 100.793 24.1C100.794 24.1 100.795 24.1 100.796 24.1C100.798 24.1 100.799 24.1 100.8 24.1C100.801 24.1 100.802 24.1 100.803 24.1C100.805 24.1 100.806 24.1 100.807 24.1C100.808 24.1 100.809 24.1 100.81 24.1C100.812 24.1 100.813 24.1 100.814 24.1C100.815 24.1 100.816 24.1 100.817 24.1C100.818 24.1 100.82 24.1 100.821 24.1C100.822 24.1 100.823 24.1 100.824 24.1C100.825 24.1 100.827 24.1 100.828 24.1C100.829 24.1 100.83 24.1 100.831 24.1C100.832 24.1 100.833 24.1 100.835 24.1C100.836 24.1 100.837 24.1 100.838 24.1C100.839 24.1 100.84 24.1 100.841 24.1C100.843 24.1 100.844 24.1 100.845 24.1C100.846 24.1 100.847 24.1 100.848 24.1C100.849 24.1 100.85 24.1 100.852 24.1C100.853 24.1 100.854 24.1 100.855 24.1C100.856 24.1 100.857 24.1 100.858 24.1C100.86 24.1 100.861 24.1 100.862 24.1C100.863 24.1 100.864 24.1 100.865 24.1C100.866 24.1 100.867 24.1 100.869 24.1C100.87 24.1 100.871 24.1 100.872 24.1C100.873 24.1 100.874 24.1 100.875 24.1C100.876 24.1 100.878 24.1 100.879 24.1C100.88 24.1 100.881 24.1 100.882 24.1C100.883 24.1 100.884 24.1 100.885 24.1C100.887 24.1 100.888 24.1 100.889 24.1C100.89 24.1 100.891 24.1 100.892 24.1C100.893 24.1 100.894 24.1 100.896 24.1C100.897 24.1 100.898 24.1 100.899 24.1C100.9 24.1 100.901 24.1 100.902 24.1C100.903 24.1 100.904 24.1 100.906 24.1C100.907 24.1 100.908 24.1 100.909 24.1C100.91 24.1 100.911 24.1 100.912 24.1C100.913 24.1 100.914 24.1 100.915 24.1C100.917 24.1 100.918 24.1 100.919 24.1C100.92 24.1 100.921 24.1 100.922 24.1C100.923 24.1 100.924 24.1 100.925 24.1C100.926 24.1 100.928 24.1 100.929 24.1C100.93 24.1 100.931 24.1 100.932 24.1C100.933 24.1 100.934 24.1 100.935 24.1C100.936 24.1 100.937 24.1 100.939 24.1C100.94 24.1 100.941 24.1 100.942 24.1C100.943 24.1 100.944 24.1 100.945 24.1C100.946 24.1 100.947 24.1 100.948 24.1C100.949 24.1 100.951 24.1 100.952 24.1C100.953 24.1 100.954 24.1 100.955 24.1C100.956 24.1 100.957 24.1 100.958 24.1C100.959 24.1 100.96 24.1 100.961 24.1C100.962 24.1 100.964 24.1 100.965 24.1C100.966 24.1 100.967 24.1 100.968 24.1C100.969 24.1 100.97 24.1 100.971 24.1C100.972 24.1 100.973 24.1 100.974 24.1C100.975 24.1 100.976 24.1 100.978 24.1C100.979 24.1 100.98 24.1 100.981 24.1C100.982 24.1 100.983 24.1 100.984 24.1C100.985 24.1 100.986 24.1 100.987 24.1C100.988 24.1 100.989 24.1 100.99 24.1C100.991 24.1 100.993 24.1 100.994 24.1C100.995 24.1 100.996 24.1 100.997 24.1C100.998 24.1 100.999 24.1 101 24.1C101.001 24.1 101.002 24.1 101.003 24.1C101.004 24.1 101.005 24.1 101.006 24.1C101.007 24.1 101.008 24.1 101.01 24.1C101.011 24.1 101.012 24.1 101.013 24.1C101.014 24.1 101.015 24.1 101.016 24.1C101.017 24.1 101.018 24.1 101.019 24.1C101.02 24.1 101.021 24.1 101.022 24.1C101.023 24.1 101.024 24.1 101.025 24.1C101.026 24.1 101.027 24.1 101.028 24.1C101.03 24.1 101.031 24.1 101.032 24.1C101.033 24.1 101.034 24.1 101.035 24.1C101.036 24.1 101.037 24.1 101.038 24.1C101.039 24.1 101.04 24.1 101.041 24.1C101.042 24.1 101.043 24.1 101.044 24.1C101.045 24.1 101.046 24.1 101.047 24.1C101.048 24.1 101.049 24.1 101.05 24.1C101.051 24.1 101.052 24.1 101.053 24.1C101.055 24.1 101.056 24.1 101.057 24.1C101.058 24.1 101.059 24.1 101.06 24.1C101.061 24.1 101.062 24.1 101.063 24.1C101.064 24.1 101.065 24.1 101.066 24.1C101.067 24.1 101.068 24.1 101.069 24.1C101.07 24.1 101.071 24.1 101.072 24.1C101.073 24.1 101.074 24.1 101.075 24.1C101.076 24.1 101.077 24.1 101.078 24.1C101.079 24.1 101.08 24.1 101.081 24.1C101.082 24.1 101.083 24.1 101.084 24.1C101.085 24.1 101.086 24.1 101.087 24.1C101.088 24.1 101.089 24.1 101.09 24.1C101.091 24.1 101.092 24.1 101.093 24.1C101.094 24.1 101.095 24.1 101.096 24.1C101.097 24.1 101.098 24.1 101.1 24.1C101.101 24.1 101.102 24.1 101.103 24.1C101.104 24.1 101.105 24.1 101.106 24.1C101.107 24.1 101.108 24.1 101.109 24.1C101.11 24.1 101.111 24.1 101.112 24.1C101.113 24.1 101.114 24.1 101.115 24.1C101.116 24.1 101.117 24.1 101.118 24.1C101.119 24.1 101.12 24.1 101.121 24.1C101.122 24.1 101.123 24.1 101.124 24.1C101.125 24.1 101.126 24.1 101.127 24.1C101.128 24.1 101.129 24.1 101.13 24.1C101.131 24.1 101.132 24.1 101.133 24.1C101.134 24.1 101.135 24.1 101.136 24.1C101.137 24.1 101.138 24.1 101.138 24.1C101.139 24.1 101.14 24.1 101.141 24.1C101.142 24.1 101.143 24.1 101.144 24.1C101.145 24.1 101.146 24.1 101.147 24.1C101.148 24.1 101.149 24.1 101.15 24.1C101.151 24.1 101.152 24.1 101.153 24.1C101.154 24.1 101.155 24.1 101.156 24.1C101.157 24.1 101.158 24.1 101.159 24.1C101.16 24.1 101.161 24.1 101.162 24.1C101.163 24.1 101.164 24.1 101.165 24.1C101.166 24.1 101.167 24.1 101.168 24.1C101.169 24.1 101.17 24.1 101.171 24.1C101.172 24.1 101.173 24.1 101.174 24.1C101.175 24.1 101.176 24.1 101.177 24.1C101.178 24.1 101.179 24.1 101.18 24.1C101.181 24.1 101.181 24.1 101.182 24.1C101.183 24.1 101.184 24.1 101.185 24.1C101.186 24.1 101.187 24.1 101.188 24.1C101.189 24.1 101.19 24.1 101.191 24.1C101.192 24.1 101.193 24.1 101.194 24.1C101.195 24.1 101.196 24.1 101.197 24.1C101.198 24.1 101.199 24.1 101.2 24.1C101.201 24.1 101.202 24.1 101.203 24.1C101.204 24.1 101.205 24.1 101.205 24.1C101.206 24.1 101.207 24.1 101.208 24.1C101.209 24.1 101.21 24.1 101.211 24.1C101.212 24.1 101.213 24.1 101.214 24.1C101.215 24.1 101.216 24.1 101.217 24.1C101.218 24.1 101.219 24.1 101.22 24.1C101.221 24.1 101.222 24.1 101.223 24.1C101.223 24.1 101.224 24.1 101.225 24.1C101.226 24.1 101.227 24.1 101.228 24.1C101.229 24.1 101.23 24.1 101.231 24.1C101.232 24.1 101.233 24.1 101.234 24.1C101.235 24.1 101.236 24.1 101.237 24.1C101.238 24.1 101.238 24.1 101.239 24.1C101.24 24.1 101.241 24.1 101.242 24.1C101.243 24.1 101.244 24.1 101.245 24.1C101.246 24.1 101.247 24.1 101.248 24.1C101.249 24.1 101.25 24.1 101.251 24.1C101.251 24.1 101.252 24.1 101.253 24.1C101.254 24.1 101.255 24.1 101.256 24.1C101.257 24.1 101.258 24.1 101.259 24.1C101.26 24.1 101.261 24.1 101.262 24.1C101.263 24.1 101.263 24.1 101.264 24.1C101.265 24.1 101.266 24.1 101.267 24.1C101.268 24.1 101.269 24.1 101.27 24.1C101.271 24.1 101.272 24.1 101.273 24.1C101.273 24.1 101.274 24.1 101.275 24.1C101.276 24.1 101.277 24.1 101.278 24.1C101.279 24.1 101.28 24.1 101.281 24.1C101.282 24.1 101.283 24.1 101.284 24.1C101.284 24.1 101.285 24.1 101.286 24.1C101.287 24.1 101.288 24.1 101.289 24.1C101.29 24.1 101.291 24.1 101.292 24.1C101.293 24.1 101.293 24.1 101.294 24.1C101.295 24.1 101.296 24.1 101.297 24.1C101.298 24.1 101.299 24.1 101.3 24.1C101.301 24.1 101.302 24.1 101.302 24.1C101.303 24.1 101.304 24.1 101.305 24.1C101.306 24.1 101.307 24.1 101.308 24.1C101.309 24.1 101.31 24.1 101.31 24.1C101.311 24.1 101.312 24.1 101.313 24.1C101.314 24.1 101.315 24.1 101.316 24.1C101.317 24.1 101.318 24.1 101.318 24.1C101.319 24.1 101.32 24.1 101.321 24.1C101.322 24.1 101.323 24.1 101.324 24.1C101.325 24.1 101.325 24.1 101.326 24.1C101.327 24.1 101.328 24.1 101.329 24.1C101.33 24.1 101.331 24.1 101.332 24.1C101.333 24.1 101.333 24.1 101.334 24.1C101.335 24.1 101.336 24.1 101.337 24.1C101.338 24.1 101.339 24.1 101.34 24.1C101.34 24.1 101.341 24.1 101.342 24.1C101.343 24.1 101.344 24.1 101.345 24.1C101.346 24.1 101.346 24.1 101.347 24.1C101.348 24.1 101.349 24.1 101.35 24.1C101.351 24.1 101.352 24.1 101.353 24.1C101.353 24.1 101.354 24.1 101.355 24.1C101.356 24.1 101.357 24.1 101.358 24.1C101.359 24.1 101.359 24.1 101.36 24.1C101.361 24.1 101.362 24.1 101.363 24.1C101.364 24.1 101.365 24.1 101.365 24.1C101.366 24.1 101.367 24.1 101.368 24.1C101.369 24.1 101.37 24.1 101.371 24.1C101.371 24.1 101.372 24.1 101.373 24.1C101.374 24.1 101.375 24.1 101.376 24.1C101.377 24.1 101.377 24.1 101.378 24.1C101.379 24.1 101.38 24.1 101.381 24.1C101.382 24.1 101.382 24.1 101.383 24.1C101.384 24.1 101.385 24.1 101.386 24.1C101.387 24.1 101.388 24.1 101.388 24.1C101.389 24.1 101.39 24.1 101.391 24.1C101.392 24.1 101.393 24.1 101.393 24.1C101.394 24.1 101.395 24.1 101.396 24.1C101.397 24.1 101.398 24.1 101.398 24.1C101.399 24.1 101.4 24.1 101.401 24.1C101.402 24.1 101.403 24.1 101.403 24.1C101.404 24.1 101.405 24.1 101.406 24.1C101.407 24.1 101.408 24.1 101.408 24.1C101.409 24.1 101.41 24.1 101.411 24.1C101.412 24.1 101.413 24.1 101.413 24.1C101.414 24.1 101.415 24.1 101.416 24.1C101.417 24.1 101.417 24.1 101.418 24.1C101.419 24.1 101.42 24.1 101.421 24.1C101.422 24.1 101.422 24.1 101.423 24.1C101.424 24.1 101.425 24.1 101.426 24.1C101.426 24.1 101.427 24.1 101.428 24.1C101.429 24.1 101.43 24.1 101.431 24.1C101.431 24.1 101.432 24.1 101.433 24.1C101.434 24.1 101.435 24.1 101.435 24.1C101.436 24.1 101.437 24.1 101.438 24.1C101.439 24.1 101.439 24.1 101.44 24.1C101.441 24.1 101.442 24.1 101.443 24.1C101.443 24.1 101.444 24.1 101.445 24.1C101.446 24.1 101.447 24.1 101.448 24.1C101.448 24.1 101.449 24.1 101.45 24.1C101.451 24.1 101.452 24.1 101.452 24.1C101.453 24.1 101.454 24.1 101.455 24.1C101.455 24.1 101.456 24.1 101.457 24.1C101.458 24.1 101.459 24.1 101.459 24.1C101.46 24.1 101.461 24.1 101.462 24.1C101.463 24.1 101.463 24.1 101.464 24.1C101.465 24.1 101.466 24.1 101.467 24.1C101.467 24.1 101.468 24.1 101.469 24.1C101.47 24.1 101.471 24.1 101.471 24.1C101.472 24.1 101.473 24.1 101.474 24.1C101.474 24.1 101.475 24.1 101.476 24.1C101.477 24.1 101.478 24.1 101.478 24.1C101.479 24.1 101.48 24.1 101.481 24.1C101.481 24.1 101.482 24.1 101.483 24.1C101.484 24.1 101.485 24.1 101.485 24.1C101.486 24.1 101.487 24.1 101.488 24.1C101.488 24.1 101.489 24.1 101.49 24.1C101.491 24.1 101.492 24.1 101.492 24.1C101.493 24.1 101.494 24.1 101.495 24.1C101.495 24.1 101.496 24.1 101.497 24.1C101.498 24.1 101.498 24.1 101.499 24.1C101.5 24.1 101.501 24.1 101.502 24.1C101.502 24.1 101.503 24.1 101.504 24.1C101.505 24.1 101.505 24.1 101.506 24.1C101.507 24.1 101.508 24.1 101.508 24.1C101.509 24.1 101.51 24.1 101.511 24.1C101.511 24.1 101.512 24.1 101.513 24.1C101.514 24.1 101.514 24.1 101.515 24.1C101.516 24.1 101.517 24.1 101.517 24.1C101.518 24.1 101.519 24.1 101.52 24.1C101.521 24.1 101.521 24.1 101.522 24.1V23.1ZM99.73 23.1C98.9 23.1 98.1896 23.2373 97.6741 23.5857C97.1236 23.9577 96.862 24.5239 96.862 25.2H97.862C97.862 24.8095 97.9951 24.5757 98.2339 24.4143C98.5077 24.2293 98.9813 24.1 99.73 24.1V23.1ZM96.862 25.2V28.72H97.862V25.2H96.862ZM97.408 29.2179L101.568 28.8339L101.476 27.8381L97.316 28.2221L97.408 29.2179ZM111.366 33.904C111.366 32.9253 111.387 32.2188 111.428 31.7733L110.432 31.6827C110.387 32.1758 110.366 32.92 110.366 33.904H111.366ZM111.423 31.8102C111.499 31.3557 111.673 30.8241 111.959 30.2114L111.053 29.7886C110.741 30.4559 110.532 31.0763 110.437 31.6458L111.423 31.8102ZM111.946 30.237C112.164 29.8321 112.601 29.4793 113.36 29.2263C114.121 28.9727 115.16 28.836 116.498 28.836V27.836C115.105 27.836 113.947 27.9766 113.044 28.2777C112.139 28.5794 111.445 29.0585 111.066 29.763L111.946 30.237ZM116.498 28.836C118.515 28.836 119.813 29.1985 120.526 29.805L121.174 29.043C120.181 28.1988 118.577 27.836 116.498 27.836V28.836ZM120.532 29.81C121.114 30.2894 121.463 31.051 121.502 32.1932L122.502 32.1588C122.456 30.8263 122.036 29.7532 121.168 29.038L120.532 29.81ZM121.504 32.2257C121.545 32.6273 121.566 33.2261 121.566 34.032H122.566C122.566 33.2166 122.545 32.5781 122.5 32.1262L121.504 32.2257ZM121.566 34.032V56.432H122.566V34.032H121.566ZM121.566 56.432C121.566 57.4055 121.523 58.1192 121.445 58.5898L122.431 58.7542C122.523 58.2008 122.566 57.4212 122.566 56.432H121.566ZM121.44 58.6267C121.406 59.0036 121.246 59.4911 120.921 60.1007L121.803 60.5713C122.161 59.9009 122.385 59.2791 122.436 58.7173L121.44 58.6267ZM120.915 60.1124C120.717 60.5087 120.301 60.8581 119.554 61.1103C118.805 61.3632 117.772 61.5 116.434 61.5V62.5C117.826 62.5 118.98 62.3595 119.874 62.0577C120.77 61.7552 121.453 61.2726 121.809 60.5596L120.915 60.1124ZM116.434 61.5C115.119 61.5 114.099 61.3583 113.351 61.0962C112.608 60.8356 112.172 60.4707 111.95 60.0418L111.062 60.5022C111.437 61.2253 112.121 61.7244 113.021 62.0398C113.916 62.3537 115.061 62.5 116.434 62.5V61.5ZM111.959 60.0606C111.671 59.4427 111.497 58.9308 111.422 58.5186L110.438 58.6974C110.534 59.2239 110.744 59.8213 111.053 60.4834L111.959 60.0606ZM111.428 58.5627C111.387 58.1175 111.366 57.3901 111.366 56.368H110.366C110.366 57.3939 110.387 58.1598 110.432 58.6533L111.428 58.5627ZM111.366 56.368V33.904H110.366V56.368H111.366ZM120.915 21.8404C120.692 22.2857 120.266 22.6402 119.547 22.8672L119.849 23.8208C120.751 23.5358 121.435 23.0369 121.809 22.2876L120.915 21.8404ZM119.547 22.8672C118.806 23.1014 117.775 23.228 116.434 23.228V24.228C117.823 24.228 118.969 24.0986 119.849 23.8208L119.547 22.8672ZM116.434 23.228C115.137 23.228 114.127 23.1018 113.385 22.8672L113.083 23.8208C113.962 24.0982 115.085 24.228 116.434 24.228V23.228ZM113.385 22.8672C112.676 22.6433 112.216 22.2696 111.947 21.7647L111.065 22.2353C111.478 23.0104 112.171 23.5327 113.083 23.8208L113.385 22.8672ZM111.959 21.7886C111.671 21.1707 111.497 20.6588 111.422 20.2466L110.438 20.4254C110.534 20.9519 110.744 21.5493 111.053 22.2114L111.959 21.7886ZM111.428 20.2945C111.387 19.8036 111.366 19.0735 111.366 18.096H110.366C110.366 19.0812 110.387 19.8444 110.432 20.3775L111.428 20.2945ZM111.366 18.096C111.366 17.1173 111.387 16.4108 111.428 15.9653L110.432 15.8747C110.387 16.3678 110.366 17.112 110.366 18.096H111.366ZM111.423 16.0022C111.498 15.5511 111.671 15.0444 111.953 14.4796L111.059 14.0324C110.744 14.6622 110.532 15.2649 110.437 15.8378L111.423 16.0022ZM111.95 14.4862C112.171 14.0594 112.611 13.6938 113.366 13.4325C114.124 13.1699 115.161 13.028 116.498 13.028V12.028C115.104 12.028 113.944 12.1741 113.038 12.4875C112.129 12.8022 111.438 13.3006 111.062 14.0258L111.95 14.4862ZM116.498 13.028C117.813 13.028 118.827 13.1699 119.563 13.4311C120.293 13.6907 120.709 14.0521 120.912 14.4729L121.813 14.0391C121.46 13.3079 120.788 12.8053 119.897 12.4888C119.012 12.1741 117.871 12.028 116.498 12.028V13.028ZM120.921 14.4913C121.242 15.0942 121.405 15.6032 121.44 16.0255L122.436 15.9425C122.386 15.3408 122.164 14.6978 121.803 14.0207L120.921 14.4913ZM121.446 16.0734C121.523 16.4963 121.566 17.1842 121.566 18.16H122.566C122.566 17.1731 122.524 16.4104 122.43 15.8946L121.446 16.0734ZM121.566 18.16C121.566 19.1335 121.523 19.8472 121.445 20.3178L122.431 20.4822C122.523 19.9288 122.566 19.1492 122.566 18.16H121.566ZM121.44 20.3547C121.406 20.7316 121.246 21.2191 120.921 21.8287L121.803 22.2993C122.161 21.6289 122.385 21.0071 122.436 20.4453L121.44 20.3547Z" fill="#451313" fill-opacity="0.3"/>
</g>
<defs>
<filter id="filter0_d_2_5" x="-1.44" y="12.4" width="127.506" height="57.664" filterUnits="userSpaceOnUse" color-interpolation-filters="sRGB">
<feFlood flood-opacity="0" result="BackgroundImageFix"/>
<feColorMatrix in="SourceAlpha" type="matrix" values="0 0 0 0 0 0 0 0 0 0 0 0 0 0 0 0 0 0 127 0" result="hardAlpha"/>
<feOffset dy="4"/>
<feGaussianBlur stdDeviation="2"/>
<feComposite in2="hardAlpha" operator="out"/>
<feColorMatrix type="matrix" values="0 0 0 0 0 0 0 0 0 0 0 0 0 0 0 0 0 0 0.25 0"/>
<feBlend mode="normal" in2="BackgroundImageFix" result="effect1_dropShadow_2_5"/>
<feBlend mode="normal" in="SourceGraphic" in2="effect1_dropShadow_2_5" result="shape"/>
</filter>
</defs>
</svg>
