<svg width="61" height="26" viewBox="0 0 61 26" fill="none" xmlns="http://www.w3.org/2000/svg">
<path d="M17.592 6.28C18.1467 7.41067 18.424 8.66933 18.424 10.056C18.424 11.4427 18.1467 12.7013 17.592 13.832C17.0373 14.9413 16.3227 15.8267 15.448 16.488C13.6773 17.8533 11.8427 18.536 9.944 18.536H5.944V22.152C5.944 22.6427 5.92267 23.016 5.88 23.272C5.85867 23.5067 5.76267 23.784 5.592 24.104C5.29333 24.68 4.46133 24.968 3.096 24.968C1.60267 24.968 0.728 24.5733 0.472 23.784C0.344 23.4213 0.28 22.8667 0.28 22.12V4.36C0.28 3.86933 0.290667 3.50667 0.312 3.272C0.354667 3.016 0.461333 2.728 0.632 2.408C0.930667 1.832 1.76267 1.544 3.128 1.544H9.976C11.8533 1.544 13.6773 2.22667 15.448 3.592C16.3227 4.25333 17.0373 5.14933 17.592 6.28ZM9.976 12.872C10.616 12.872 11.2453 12.6373 11.864 12.168C12.4827 11.6987 12.792 10.9947 12.792 10.056C12.792 9.11733 12.4827 8.41333 11.864 7.944C11.2453 7.45333 10.6053 7.208 9.944 7.208H5.944V12.872H9.976ZM27.9868 24.936C25.8321 24.936 24.0401 24.1253 22.6108 22.504C21.2028 20.8613 20.4988 18.8667 20.4988 16.52V10.92C20.4988 10.408 20.5094 10.0347 20.5308 9.8C20.5734 9.56533 20.6694 9.288 20.8188 8.968C21.1174 8.392 21.9494 8.104 23.3148 8.104C24.8081 8.104 25.6828 8.50933 25.9388 9.32C26.0668 9.66133 26.1308 10.2053 26.1308 10.952V16.552C26.1308 17.4267 26.3761 18.1093 26.8668 18.6C27.3788 19.0907 28.0508 19.336 28.8828 19.336C29.7361 19.336 30.4188 19.08 30.9308 18.568C31.4641 18.056 31.7308 17.384 31.7308 16.552V10.888C31.7308 10.3973 31.7414 10.0347 31.7628 9.8C31.8054 9.544 31.9121 9.256 32.0828 8.936C32.3601 8.38133 33.1814 8.104 34.5468 8.104C35.8908 8.104 36.7121 8.392 37.0108 8.968C37.1601 9.288 37.2454 9.576 37.2668 9.832C37.3094 10.0667 37.3308 10.4293 37.3308 10.92V22.248C37.3308 22.7173 37.3094 23.08 37.2668 23.336C37.2454 23.5707 37.1494 23.8373 36.9788 24.136C36.6588 24.6907 35.8374 24.968 34.5148 24.968C33.2134 24.968 32.4134 24.712 32.1148 24.2C31.9014 23.8373 31.7948 23.4 31.7948 22.888C31.7094 23.0373 31.5174 23.2507 31.2188 23.528C30.9201 23.8053 30.6321 24.04 30.3548 24.232C29.6294 24.7013 28.8401 24.936 27.9868 24.936ZM49.761 8.168C51.233 8.168 52.097 8.57333 52.353 9.384C52.481 9.78933 52.545 10.3227 52.545 10.984C52.545 11.6453 52.4703 12.1787 52.321 12.584C52.193 12.968 51.9797 13.2453 51.681 13.416C51.233 13.672 50.5823 13.8 49.729 13.8L47.681 13.672V22.248C47.681 23.0587 47.5743 23.6667 47.361 24.072C47.169 24.456 46.8597 24.712 46.433 24.84C46.0277 24.968 45.4943 25.032 44.833 25.032C44.1717 25.032 43.6383 24.968 43.233 24.84C42.849 24.6907 42.5717 24.4667 42.401 24.168C42.2303 23.848 42.1237 23.56 42.081 23.304C42.0597 23.048 42.049 22.6747 42.049 22.184V13.704H40.897C40.3423 13.6613 39.9477 13.5333 39.713 13.32C39.3077 12.9147 39.105 12.136 39.105 10.984C39.105 9.23467 39.7343 8.36 40.993 8.36H42.049V6.664C42.049 5.02133 42.6357 3.53867 43.809 2.216C44.9823 0.871999 46.6783 0.199999 48.897 0.199999C49.3877 0.199999 49.7503 0.221332 49.985 0.263998C50.241 0.285332 50.529 0.381332 50.849 0.551998C51.425 0.829332 51.713 1.65067 51.713 3.016C51.713 4.04 51.5317 4.776 51.169 5.224C50.8703 5.56533 50.401 5.75733 49.761 5.8C49.569 5.8 49.2703 5.8 48.865 5.8C48.0757 5.8 47.681 6.06667 47.681 6.6V8.36L49.761 8.168ZM54.433 10.952C54.433 10.4613 54.4437 10.0987 54.465 9.864C54.5077 9.608 54.6037 9.32 54.753 9C55.0517 8.44533 55.8837 8.168 57.249 8.168C58.273 8.168 58.9983 8.34933 59.425 8.712C59.7877 9.01067 59.9797 9.46933 60.001 10.088C60.0223 10.3013 60.033 10.6107 60.033 11.016V22.216C60.033 22.7067 60.0117 23.08 59.969 23.336C59.9477 23.5707 59.8517 23.848 59.681 24.168C59.4037 24.7227 58.5823 25 57.217 25C55.873 25 55.0517 24.712 54.753 24.136C54.6037 23.816 54.5077 23.5387 54.465 23.304C54.4437 23.0693 54.433 22.696 54.433 22.184V10.952ZM59.681 5.032C59.5317 5.33067 59.2543 5.544 58.849 5.672C58.4437 5.8 57.8997 5.864 57.217 5.864C56.5557 5.864 56.0223 5.8 55.617 5.672C55.2117 5.544 54.9237 5.32 54.753 5C54.6037 4.68 54.5077 4.40267 54.465 4.168C54.4437 3.912 54.433 3.53867 54.433 3.048C54.433 2.55733 54.4437 2.19467 54.465 1.96C54.5077 1.704 54.6037 1.42666 54.753 1.128C55.0517 0.551998 55.8837 0.263998 57.249 0.263998C58.593 0.263998 59.4037 0.551998 59.681 1.128C59.8517 1.448 59.9477 1.736 59.969 1.992C60.0117 2.22667 60.033 2.58933 60.033 3.08C60.033 3.57066 60.0117 3.944 59.969 4.2C59.9477 4.43467 59.8517 4.712 59.681 5.032Z" fill="#FFFAFA"/>
<path d="M17.592 6.28L18.4898 5.83957L18.4898 5.83957L17.592 6.28ZM17.592 13.832L18.4865 14.2792L18.4898 14.2724L17.592 13.832ZM15.448 16.488L14.8449 15.6903L14.8374 15.6961L15.448 16.488ZM5.944 18.536V17.536H4.944V18.536H5.944ZM5.88 23.272L4.89361 23.1076L4.88748 23.1444L4.88411 23.1815L5.88 23.272ZM5.592 24.104L4.70959 23.6334L4.70425 23.6437L5.592 24.104ZM0.472 23.784L1.42322 23.4755L1.41926 23.4633L1.41499 23.4512L0.472 23.784ZM0.312 3.272L-0.674394 3.1076L-0.68052 3.14436L-0.683893 3.18146L0.312 3.272ZM0.632 2.408L1.51441 2.87862L1.51975 2.86832L0.632 2.408ZM15.448 3.592L14.8373 4.38395L14.8449 4.38966L15.448 3.592ZM11.864 12.168L11.2596 11.3713L11.2596 11.3713L11.864 12.168ZM11.864 7.944L11.2426 8.7275L11.251 8.73418L11.2596 8.74069L11.864 7.944ZM5.944 7.208V6.208H4.944V7.208H5.944ZM5.944 12.872H4.944V13.872H5.944V12.872ZM16.6942 6.72042C17.1751 7.70062 17.424 8.80637 17.424 10.056H19.424C19.424 8.53229 19.1183 7.12071 18.4898 5.83957L16.6942 6.72042ZM17.424 10.056C17.424 11.3056 17.1751 12.4114 16.6942 13.3916L18.4898 14.2724C19.1183 12.9913 19.424 11.5797 19.424 10.056H17.424ZM16.6976 13.3848C16.2027 14.3746 15.5815 15.1334 14.8449 15.6903L16.0511 17.2857C17.0638 16.52 17.872 15.5081 18.4864 14.2792L16.6976 13.3848ZM14.8374 15.6961C13.2094 16.9514 11.5842 17.536 9.944 17.536V19.536C12.1012 19.536 14.1453 18.7553 16.0586 17.2799L14.8374 15.6961ZM9.944 17.536H5.944V19.536H9.944V17.536ZM4.944 18.536V22.152H6.944V18.536H4.944ZM4.944 22.152C4.944 22.6269 4.92247 22.9344 4.89361 23.1076L6.86639 23.4364C6.92286 23.0976 6.944 22.6584 6.944 22.152H4.944ZM4.88411 23.1815C4.87959 23.2312 4.84786 23.3743 4.70965 23.6334L6.47435 24.5746C6.67747 24.1937 6.83774 23.7822 6.87589 23.3625L4.88411 23.1815ZM4.70425 23.6437C4.70369 23.6448 4.69661 23.6601 4.66083 23.6874C4.62159 23.7174 4.54707 23.762 4.41689 23.807C4.14747 23.9003 3.72169 23.968 3.096 23.968V25.968C3.83565 25.968 4.50853 25.8917 5.07111 25.697C5.64116 25.4997 6.17567 25.1508 6.47975 24.5643L4.70425 23.6437ZM3.096 23.968C2.42043 23.968 1.98753 23.8761 1.73129 23.7605C1.50669 23.6592 1.45036 23.5592 1.42322 23.4755L-0.479223 24.0925C-0.000733952 25.5678 1.5517 25.968 3.096 25.968V23.968ZM1.41499 23.4512C1.34543 23.2541 1.28 22.8392 1.28 22.12H-0.72C-0.72 22.8941 -0.657427 23.5886 -0.47099 24.1168L1.41499 23.4512ZM1.28 22.12V4.36H-0.72V22.12H1.28ZM1.28 4.36C1.28 3.87457 1.29088 3.54965 1.30789 3.36254L-0.683893 3.18146C-0.70955 3.46368 -0.72 3.8641 -0.72 4.36H1.28ZM1.29839 3.4364C1.31769 3.32061 1.37606 3.13789 1.51435 2.87859L-0.250353 1.93741C-0.45339 2.3181 -0.608358 2.71138 -0.674394 3.1076L1.29839 3.4364ZM1.51975 2.86832C1.52031 2.86724 1.5274 2.85191 1.56317 2.82457C1.60241 2.79459 1.67693 2.75005 1.80711 2.70498C2.07654 2.61172 2.50231 2.544 3.128 2.544V0.543999C2.38835 0.543999 1.71547 0.620275 1.15289 0.815013C0.582836 1.01234 0.0483272 1.36124 -0.255754 1.94768L1.51975 2.86832ZM3.128 2.544H9.976V0.543999H3.128V2.544ZM9.976 2.544C11.5924 2.544 13.2071 3.12684 14.8374 4.38391L16.0586 2.80009C14.1476 1.32649 12.1143 0.543999 9.976 0.543999V2.544ZM14.8449 4.38966C15.5774 4.94348 16.1982 5.70931 16.6942 6.72042L18.4898 5.83957C17.8765 4.58935 17.068 3.56318 16.0511 2.79434L14.8449 4.38966ZM9.976 13.872C10.8776 13.872 11.7139 13.537 12.4684 12.9647L11.2596 11.3713C10.7768 11.7376 10.3544 11.872 9.976 11.872V13.872ZM12.4684 12.9647C13.3893 12.2661 13.792 11.2344 13.792 10.056H11.792C11.792 10.7549 11.5761 11.1312 11.2596 11.3713L12.4684 12.9647ZM13.792 10.056C13.792 8.8776 13.3893 7.8459 12.4684 7.14731L11.2596 8.74069C11.5761 8.98077 11.792 9.35706 11.792 10.056H13.792ZM12.4854 7.1605C11.7255 6.55784 10.8725 6.208 9.944 6.208V8.208C10.3382 8.208 10.7651 8.34882 11.2426 8.7275L12.4854 7.1605ZM9.944 6.208H5.944V8.208H9.944V6.208ZM4.944 7.208V12.872H6.944V7.208H4.944ZM5.944 13.872H9.976V11.872H5.944V13.872ZM22.6108 22.504L21.8514 23.1549L21.8606 23.1653L22.6108 22.504ZM20.5308 9.8L19.5469 9.62111L19.5389 9.66502L19.5349 9.70946L20.5308 9.8ZM20.8188 8.968L19.931 8.50768L19.9214 8.5262L19.9126 8.54511L20.8188 8.968ZM25.9388 9.32L24.9852 9.62113L24.9931 9.64636L25.0024 9.67112L25.9388 9.32ZM26.8668 18.6L26.1596 19.3071L26.1672 19.3146L26.1748 19.322L26.8668 18.6ZM30.9308 18.568L30.2382 17.8466L30.2309 17.8537L30.2236 17.8609L30.9308 18.568ZM31.7628 9.8L30.7764 9.6356L30.7702 9.67236L30.7669 9.70946L31.7628 9.8ZM32.0828 8.936L32.9651 9.40659L32.9713 9.39498L32.9772 9.38321L32.0828 8.936ZM37.0108 8.968L37.9169 8.54511L37.9081 8.52621L37.8985 8.50768L37.0108 8.968ZM37.2668 9.832L36.2702 9.91504L36.2742 9.96327L36.2829 10.0109L37.2668 9.832ZM37.2668 23.336L36.2804 23.1716L36.2742 23.2084L36.2709 23.2455L37.2668 23.336ZM36.9788 24.136L37.8449 24.6357L37.847 24.6321L36.9788 24.136ZM32.1148 24.2L32.9785 23.6961L32.9767 23.693L32.1148 24.2ZM31.7948 22.888H32.7948V19.1224L30.9265 22.3919L31.7948 22.888ZM31.2188 23.528L30.5383 22.7952L30.5383 22.7952L31.2188 23.528ZM30.3548 24.232L30.898 25.0716L30.9111 25.0631L30.924 25.0542L30.3548 24.232ZM27.9868 23.936C26.1202 23.936 24.6011 23.2495 23.3609 21.8427L21.8606 23.1653C23.4791 25.0012 25.544 25.936 27.9868 25.936V23.936ZM23.37 21.8532C22.131 20.4077 21.4988 18.6497 21.4988 16.52H19.4988C19.4988 19.0836 20.2745 21.315 21.8515 23.1548L23.37 21.8532ZM21.4988 16.52V10.92H19.4988V16.52H21.4988ZM21.4988 10.92C21.4988 10.4117 21.5097 10.0769 21.5266 9.89053L19.5349 9.70946C19.5091 9.9924 19.4988 10.4043 19.4988 10.92H21.4988ZM21.5146 9.97888C21.5365 9.85841 21.5963 9.66662 21.7249 9.39088L19.9126 8.54511C19.7426 8.90937 19.6103 9.27225 19.5469 9.62111L21.5146 9.97888ZM21.7065 9.42832C21.7071 9.42724 21.7141 9.41191 21.7499 9.38457C21.7892 9.35459 21.8637 9.31005 21.9939 9.26499C22.2633 9.17172 22.6891 9.104 23.3148 9.104V7.104C22.5751 7.104 21.9022 7.18028 21.3396 7.37501C20.7696 7.57234 20.2351 7.92124 19.931 8.50768L21.7065 9.42832ZM23.3148 9.104C24.7421 9.104 24.9454 9.49512 24.9852 9.62113L26.8923 9.01887C26.4201 7.52355 24.8741 7.104 23.3148 7.104V9.104ZM25.0024 9.67112C25.0638 9.83478 25.1308 10.2264 25.1308 10.952H27.1308C27.1308 10.1842 27.0697 9.48789 26.8751 8.96888L25.0024 9.67112ZM25.1308 10.952V16.552H27.1308V10.952H25.1308ZM25.1308 16.552C25.1308 17.6191 25.4356 18.583 26.1596 19.3071L27.5739 17.8929C27.3166 17.6356 27.1308 17.2342 27.1308 16.552H25.1308ZM26.1748 19.322C26.9049 20.0216 27.8407 20.336 28.8828 20.336V18.336C28.2608 18.336 27.8526 18.1597 27.5587 17.878L26.1748 19.322ZM28.8828 20.336C29.9503 20.336 30.9051 20.0078 31.6379 19.2751L30.2236 17.8609C29.9324 18.1522 29.5218 18.336 28.8828 18.336V20.336ZM31.6233 19.2894C32.3785 18.5643 32.7308 17.6188 32.7308 16.552H30.7308C30.7308 17.1492 30.5496 17.5477 30.2382 17.8466L31.6233 19.2894ZM32.7308 16.552V10.888H30.7308V16.552H32.7308ZM32.7308 10.888C32.7308 10.4026 32.7416 10.0776 32.7586 9.89053L30.7669 9.70946C30.7412 9.99168 30.7308 10.3921 30.7308 10.888H32.7308ZM32.7491 9.9644C32.7684 9.84861 32.8268 9.66589 32.9651 9.40659L31.2004 8.46541C30.9974 8.84611 30.8424 9.23938 30.7764 9.6356L32.7491 9.9644ZM32.9772 9.38321C32.9575 9.42256 32.9651 9.34777 33.2267 9.25945C33.4926 9.16966 33.9178 9.104 34.5468 9.104V7.104C33.8104 7.104 33.1423 7.17701 32.5868 7.36455C32.0271 7.55357 31.4853 7.89477 31.1883 8.48878L32.9772 9.38321ZM34.5468 9.104C35.1605 9.104 35.577 9.1715 35.8399 9.26367C35.9667 9.30815 36.0394 9.35208 36.0779 9.38178C36.1131 9.40891 36.1213 9.42497 36.123 9.42832L37.8985 8.50768C37.5966 7.92534 37.0689 7.57523 36.5016 7.37633C35.9432 7.1805 35.277 7.104 34.5468 7.104V9.104ZM36.1046 9.39088C36.2213 9.64113 36.2616 9.81179 36.2702 9.91504L38.2633 9.74895C38.2292 9.34021 38.0988 8.93487 37.9169 8.54511L36.1046 9.39088ZM36.2829 10.0109C36.3086 10.1526 36.3308 10.4404 36.3308 10.92H38.3308C38.3308 10.4183 38.3102 9.98076 38.2506 9.65311L36.2829 10.0109ZM36.3308 10.92V22.248H38.3308V10.92H36.3308ZM36.3308 22.248C36.3308 22.6987 36.3095 22.9968 36.2804 23.1716L38.2531 23.5004C38.3094 23.1632 38.3308 22.736 38.3308 22.248H36.3308ZM36.2709 23.2455C36.2671 23.2873 36.2401 23.413 36.1105 23.6399L37.847 24.6321C38.0587 24.2616 38.2238 23.8541 38.2626 23.4265L36.2709 23.2455ZM36.1126 23.6363C36.1114 23.6382 36.0652 23.724 35.8028 23.8126C35.5344 23.9032 35.1183 23.968 34.5148 23.968V25.968C35.2339 25.968 35.8897 25.8942 36.4427 25.7074C37.0016 25.5187 37.5261 25.1884 37.8449 24.6357L36.1126 23.6363ZM34.5148 23.968C33.9173 23.968 33.5065 23.9077 33.2435 23.8236C32.9812 23.7396 32.9599 23.6642 32.9785 23.6961L31.251 24.7039C31.5683 25.2478 32.0963 25.5564 32.634 25.7284C33.171 25.9003 33.8109 25.968 34.5148 25.968V23.968ZM32.9767 23.693C32.8715 23.5142 32.7948 23.2603 32.7948 22.888H30.7948C30.7948 23.5397 30.9313 24.1605 31.2528 24.707L32.9767 23.693ZM30.9265 22.3919C30.9348 22.3773 30.9189 22.4072 30.8435 22.491C30.7738 22.5684 30.674 22.6692 30.5383 22.7952L31.8992 24.2608C32.1984 23.983 32.4943 23.6793 32.663 23.3841L30.9265 22.3919ZM30.5383 22.7952C30.2676 23.0466 30.0166 23.2498 29.7855 23.4098L30.924 25.0542C31.2475 24.8302 31.5726 24.5641 31.8992 24.2608L30.5383 22.7952ZM29.8115 23.3924C29.2459 23.7584 28.6448 23.936 27.9868 23.936V25.936C29.0354 25.936 30.013 25.6442 30.898 25.0716L29.8115 23.3924ZM49.761 8.168V7.168H49.7149L49.6691 7.17223L49.761 8.168ZM52.353 9.384L51.3994 9.68513L51.3994 9.68513L52.353 9.384ZM52.321 12.584L51.3827 12.2383L51.3773 12.253L51.3723 12.2678L52.321 12.584ZM51.681 13.416L51.1849 12.5478L51.1849 12.5478L51.681 13.416ZM49.729 13.8L49.6666 14.7981L49.6978 14.8H49.729V13.8ZM47.681 13.672L47.7434 12.6739L46.681 12.6075V13.672H47.681ZM47.361 24.072L46.4761 23.6063L46.4712 23.6155L46.4666 23.6248L47.361 24.072ZM46.433 24.84L46.1457 23.8822L46.1387 23.8842L46.1319 23.8864L46.433 24.84ZM43.233 24.84L42.8706 25.772L42.9009 25.7838L42.9319 25.7936L43.233 24.84ZM42.401 24.168L41.5186 24.6386L41.5255 24.6515L41.5328 24.6641L42.401 24.168ZM42.081 23.304L41.0845 23.387L41.0879 23.4279L41.0946 23.4684L42.081 23.304ZM42.049 13.704H43.049V12.704H42.049V13.704ZM40.897 13.704L40.8203 14.7011L40.8586 14.704H40.897V13.704ZM39.713 13.32L39.0059 14.0271L39.0227 14.0439L39.0403 14.0599L39.713 13.32ZM42.049 8.36V9.36H43.049V8.36H42.049ZM43.809 2.216L44.5571 2.87964L44.5623 2.87366L43.809 2.216ZM49.985 0.263998L49.8061 1.24787L49.8537 1.25652L49.902 1.26054L49.985 0.263998ZM50.849 0.551998L50.3784 1.43435L50.3966 1.44406L50.4152 1.453L50.849 0.551998ZM51.169 5.224L51.9216 5.8825L51.9342 5.86809L51.9462 5.8532L51.169 5.224ZM49.761 5.8V6.8H49.7943L49.8275 6.79778L49.761 5.8ZM47.681 8.36H46.681V9.45656L47.7729 9.35577L47.681 8.36ZM54.465 9.864L53.4786 9.6996L53.4725 9.73636L53.4691 9.77346L54.465 9.864ZM54.753 9L53.8725 8.5259L53.8589 8.55114L53.8468 8.57711L54.753 9ZM59.425 8.712L58.7774 9.47394L58.7833 9.47898L58.7893 9.48393L59.425 8.712ZM60.001 10.088L59.0016 10.1225L59.0027 10.1551L59.006 10.1875L60.001 10.088ZM59.969 23.336L58.9826 23.1716L58.9765 23.2084L58.9731 23.2455L59.969 23.336ZM59.681 24.168L58.7986 23.6974L58.7925 23.709L58.7866 23.7208L59.681 24.168ZM54.753 24.136L53.8468 24.5589L53.8556 24.5778L53.8652 24.5963L54.753 24.136ZM54.465 23.304L53.4691 23.3945L53.4731 23.439L53.4811 23.4829L54.465 23.304ZM59.681 5.032L58.7986 4.56141L58.7925 4.57302L58.7866 4.58478L59.681 5.032ZM54.753 5L53.8468 5.42288L53.8581 5.44705L53.8706 5.47059L54.753 5ZM54.465 4.168L53.4685 4.25105L53.4725 4.29927L53.4811 4.34688L54.465 4.168ZM54.465 1.96L53.4786 1.7956L53.4725 1.83236L53.4691 1.86946L54.465 1.96ZM54.753 1.128L53.8652 0.667681L53.8619 0.674209L53.8586 0.680785L54.753 1.128ZM59.681 1.128L58.78 1.56181L58.7889 1.58039L58.7986 1.59858L59.681 1.128ZM59.969 1.992L58.9725 2.07505L58.9765 2.12327L58.9851 2.17088L59.969 1.992ZM59.969 4.2L58.9826 4.0356L58.9765 4.07235L58.9731 4.10946L59.969 4.2ZM49.761 9.168C51.1573 9.168 51.358 9.55382 51.3994 9.68513L53.3066 9.08287C52.836 7.59284 51.3087 7.168 49.761 7.168V9.168ZM51.3994 9.68513C51.4845 9.95463 51.545 10.3747 51.545 10.984H53.545C53.545 10.2706 53.4775 9.62403 53.3066 9.08287L51.3994 9.68513ZM51.545 10.984C51.545 11.5833 51.4755 11.9862 51.3827 12.2383L53.2593 12.9297C53.4651 12.3711 53.545 11.7074 53.545 10.984H51.545ZM51.3723 12.2678C51.3076 12.462 51.2331 12.5202 51.1849 12.5478L52.1771 14.2842C52.7263 13.9704 53.0784 13.474 53.2697 12.9002L51.3723 12.2678ZM51.1849 12.5478C50.9565 12.6782 50.5095 12.8 49.729 12.8V14.8C50.6552 14.8 51.5095 14.6658 52.1771 14.2842L51.1849 12.5478ZM49.7914 12.8019L47.7434 12.6739L47.6186 14.6701L49.6666 14.7981L49.7914 12.8019ZM46.681 13.672V22.248H48.681V13.672H46.681ZM46.681 22.248C46.681 23.0035 46.5761 23.4162 46.4761 23.6063L48.2459 24.5377C48.5726 23.9171 48.681 23.1138 48.681 22.248H46.681ZM46.4666 23.6248C46.403 23.7519 46.3194 23.83 46.1457 23.8822L46.7203 25.7978C47.3999 25.594 47.935 25.1601 48.2554 24.5192L46.4666 23.6248ZM46.1319 23.8864C45.8624 23.9715 45.4423 24.032 44.833 24.032V26.032C45.5464 26.032 46.193 25.9645 46.7341 25.7936L46.1319 23.8864ZM44.833 24.032C44.2237 24.032 43.8036 23.9715 43.5341 23.8864L42.9319 25.7936C43.473 25.9645 44.1196 26.032 44.833 26.032V24.032ZM43.5954 23.908C43.3811 23.8246 43.3049 23.7342 43.2692 23.6719L41.5328 24.6641C41.8385 25.1991 42.3169 25.5567 42.8706 25.772L43.5954 23.908ZM43.2834 23.6974C43.1451 23.4381 43.0867 23.2554 43.0674 23.1396L41.0946 23.4684C41.1606 23.8646 41.3156 24.2579 41.5186 24.6386L43.2834 23.6974ZM43.0775 23.221C43.0597 23.0072 43.049 22.667 43.049 22.184H41.049C41.049 22.6823 41.0596 23.0888 41.0845 23.387L43.0775 23.221ZM43.049 22.184V13.704H41.049V22.184H43.049ZM42.049 12.704H40.897V14.704H42.049V12.704ZM40.9737 12.7069C40.7503 12.6898 40.5951 12.6577 40.4935 12.6248C40.3914 12.5917 40.3709 12.5666 40.3857 12.5801L39.0403 14.0599C39.5238 14.4994 40.1933 14.6528 40.8203 14.7011L40.9737 12.7069ZM40.4201 12.6129C40.3193 12.5121 40.105 12.1026 40.105 10.984H38.105C38.105 12.1694 38.296 13.3172 39.0059 14.0271L40.4201 12.6129ZM40.105 10.984C40.105 10.1992 40.2516 9.79068 40.3887 9.60004C40.4821 9.47027 40.6236 9.36 40.993 9.36V7.36C40.1037 7.36 39.3012 7.68706 38.7653 8.43195C38.2731 9.11598 38.105 10.0194 38.105 10.984H40.105ZM40.993 9.36H42.049V7.36H40.993V9.36ZM43.049 8.36V6.664H41.049V8.36H43.049ZM43.049 6.664C43.049 5.28544 43.5326 4.03449 44.5571 2.87961L43.0609 1.55238C41.7387 3.04284 41.049 4.75722 41.049 6.664H43.049ZM44.5623 2.87366C45.5009 1.7986 46.891 1.2 48.897 1.2V-0.800001C46.4657 -0.800001 44.4638 -0.0545989 43.0557 1.55834L44.5623 2.87366ZM48.897 1.2C49.3766 1.2 49.6644 1.22211 49.8061 1.24787L50.1639 -0.719872C49.8362 -0.779443 49.3987 -0.800001 48.897 -0.800001V1.2ZM49.902 1.26054C49.9787 1.26694 50.1326 1.30325 50.3784 1.43435L51.3196 -0.330356C50.9254 -0.540585 50.5033 -0.696273 50.068 -0.732547L49.902 1.26054ZM50.4152 1.453C50.3885 1.44015 50.4645 1.45364 50.5533 1.70689C50.6451 1.96847 50.713 2.38944 50.713 3.016H52.713C52.713 2.27723 52.6369 1.60486 52.4407 1.0451C52.2415 0.477024 51.8855 -0.0588163 51.2828 -0.349003L50.4152 1.453ZM50.713 3.016C50.713 3.96976 50.5348 4.41805 50.3918 4.5948L51.9462 5.8532C52.5285 5.13395 52.713 4.11024 52.713 3.016H50.713ZM50.4164 4.56549C50.354 4.63683 50.1807 4.7698 49.6945 4.80221L49.8275 6.79778C50.6213 6.74486 51.3867 6.49383 51.9216 5.8825L50.4164 4.56549ZM49.761 4.8C49.7606 4.8 49.7603 4.8 49.7599 4.8C49.7595 4.8 49.7591 4.8 49.7587 4.8C49.7584 4.8 49.758 4.8 49.7576 4.8C49.7572 4.8 49.7569 4.8 49.7565 4.8C49.7561 4.8 49.7557 4.8 49.7553 4.8C49.755 4.8 49.7546 4.8 49.7542 4.8C49.7538 4.8 49.7534 4.8 49.7531 4.8C49.7527 4.8 49.7523 4.8 49.7519 4.8C49.7515 4.8 49.7512 4.8 49.7508 4.8C49.7504 4.8 49.75 4.8 49.7496 4.8C49.7492 4.8 49.7489 4.8 49.7485 4.8C49.7481 4.8 49.7477 4.8 49.7473 4.8C49.7469 4.8 49.7466 4.8 49.7462 4.8C49.7458 4.8 49.7454 4.8 49.745 4.8C49.7446 4.8 49.7442 4.8 49.7439 4.8C49.7435 4.8 49.7431 4.8 49.7427 4.8C49.7423 4.8 49.7419 4.8 49.7415 4.8C49.7411 4.8 49.7407 4.8 49.7404 4.8C49.74 4.8 49.7396 4.8 49.7392 4.8C49.7388 4.8 49.7384 4.8 49.738 4.8C49.7376 4.8 49.7372 4.8 49.7368 4.8C49.7364 4.8 49.7361 4.8 49.7357 4.8C49.7353 4.8 49.7349 4.8 49.7345 4.8C49.7341 4.8 49.7337 4.8 49.7333 4.8C49.7329 4.8 49.7325 4.8 49.7321 4.8C49.7317 4.8 49.7313 4.8 49.7309 4.8C49.7305 4.8 49.7301 4.8 49.7297 4.8C49.7293 4.8 49.7289 4.8 49.7285 4.8C49.7281 4.8 49.7277 4.8 49.7273 4.8C49.727 4.8 49.7266 4.8 49.7262 4.8C49.7258 4.8 49.7254 4.8 49.725 4.8C49.7246 4.8 49.7242 4.8 49.7238 4.8C49.7233 4.8 49.7229 4.8 49.7225 4.8C49.7221 4.8 49.7217 4.8 49.7213 4.8C49.7209 4.8 49.7205 4.8 49.7201 4.8C49.7197 4.8 49.7193 4.8 49.7189 4.8C49.7185 4.8 49.7181 4.8 49.7177 4.8C49.7173 4.8 49.7169 4.8 49.7165 4.8C49.7161 4.8 49.7157 4.8 49.7153 4.8C49.7149 4.8 49.7145 4.8 49.714 4.8C49.7136 4.8 49.7132 4.8 49.7128 4.8C49.7124 4.8 49.712 4.8 49.7116 4.8C49.7112 4.8 49.7108 4.8 49.7104 4.8C49.71 4.8 49.7095 4.8 49.7091 4.8C49.7087 4.8 49.7083 4.8 49.7079 4.8C49.7075 4.8 49.7071 4.8 49.7067 4.8C49.7063 4.8 49.7058 4.8 49.7054 4.8C49.705 4.8 49.7046 4.8 49.7042 4.8C49.7038 4.8 49.7034 4.8 49.7029 4.8C49.7025 4.8 49.7021 4.8 49.7017 4.8C49.7013 4.8 49.7009 4.8 49.7005 4.8C49.7 4.8 49.6996 4.8 49.6992 4.8C49.6988 4.8 49.6984 4.8 49.6979 4.8C49.6975 4.8 49.6971 4.8 49.6967 4.8C49.6963 4.8 49.6959 4.8 49.6954 4.8C49.695 4.8 49.6946 4.8 49.6942 4.8C49.6938 4.8 49.6933 4.8 49.6929 4.8C49.6925 4.8 49.6921 4.8 49.6916 4.8C49.6912 4.8 49.6908 4.8 49.6904 4.8C49.69 4.8 49.6895 4.8 49.6891 4.8C49.6887 4.8 49.6883 4.8 49.6878 4.8C49.6874 4.8 49.687 4.8 49.6866 4.8C49.6861 4.8 49.6857 4.8 49.6853 4.8C49.6849 4.8 49.6844 4.8 49.684 4.8C49.6836 4.8 49.6831 4.8 49.6827 4.8C49.6823 4.8 49.6819 4.8 49.6814 4.8C49.681 4.8 49.6806 4.8 49.6801 4.8C49.6797 4.8 49.6793 4.8 49.6789 4.8C49.6784 4.8 49.678 4.8 49.6776 4.8C49.6771 4.8 49.6767 4.8 49.6763 4.8C49.6758 4.8 49.6754 4.8 49.675 4.8C49.6745 4.8 49.6741 4.8 49.6737 4.8C49.6732 4.8 49.6728 4.8 49.6724 4.8C49.6719 4.8 49.6715 4.8 49.6711 4.8C49.6706 4.8 49.6702 4.8 49.6698 4.8C49.6693 4.8 49.6689 4.8 49.6684 4.8C49.668 4.8 49.6676 4.8 49.6671 4.8C49.6667 4.8 49.6663 4.8 49.6658 4.8C49.6654 4.8 49.6649 4.8 49.6645 4.8C49.6641 4.8 49.6636 4.8 49.6632 4.8C49.6627 4.8 49.6623 4.8 49.6619 4.8C49.6614 4.8 49.661 4.8 49.6605 4.8C49.6601 4.8 49.6597 4.8 49.6592 4.8C49.6588 4.8 49.6583 4.8 49.6579 4.8C49.6574 4.8 49.657 4.8 49.6566 4.8C49.6561 4.8 49.6557 4.8 49.6552 4.8C49.6548 4.8 49.6543 4.8 49.6539 4.8C49.6534 4.8 49.653 4.8 49.6525 4.8C49.6521 4.8 49.6517 4.8 49.6512 4.8C49.6508 4.8 49.6503 4.8 49.6499 4.8C49.6494 4.8 49.649 4.8 49.6485 4.8C49.6481 4.8 49.6476 4.8 49.6472 4.8C49.6467 4.8 49.6463 4.8 49.6458 4.8C49.6454 4.8 49.6449 4.8 49.6445 4.8C49.644 4.8 49.6436 4.8 49.6431 4.8C49.6427 4.8 49.6422 4.8 49.6418 4.8C49.6413 4.8 49.6408 4.8 49.6404 4.8C49.6399 4.8 49.6395 4.8 49.639 4.8C49.6386 4.8 49.6381 4.8 49.6377 4.8C49.6372 4.8 49.6367 4.8 49.6363 4.8C49.6358 4.8 49.6354 4.8 49.6349 4.8C49.6345 4.8 49.634 4.8 49.6336 4.8C49.6331 4.8 49.6326 4.8 49.6322 4.8C49.6317 4.8 49.6313 4.8 49.6308 4.8C49.6303 4.8 49.6299 4.8 49.6294 4.8C49.629 4.8 49.6285 4.8 49.628 4.8C49.6276 4.8 49.6271 4.8 49.6266 4.8C49.6262 4.8 49.6257 4.8 49.6253 4.8C49.6248 4.8 49.6243 4.8 49.6239 4.8C49.6234 4.8 49.6229 4.8 49.6225 4.8C49.622 4.8 49.6216 4.8 49.6211 4.8C49.6206 4.8 49.6202 4.8 49.6197 4.8C49.6192 4.8 49.6188 4.8 49.6183 4.8C49.6178 4.8 49.6174 4.8 49.6169 4.8C49.6164 4.8 49.616 4.8 49.6155 4.8C49.615 4.8 49.6145 4.8 49.6141 4.8C49.6136 4.8 49.6131 4.8 49.6127 4.8C49.6122 4.8 49.6117 4.8 49.6113 4.8C49.6108 4.8 49.6103 4.8 49.6098 4.8C49.6094 4.8 49.6089 4.8 49.6084 4.8C49.6079 4.8 49.6075 4.8 49.607 4.8C49.6065 4.8 49.6061 4.8 49.6056 4.8C49.6051 4.8 49.6046 4.8 49.6042 4.8C49.6037 4.8 49.6032 4.8 49.6027 4.8C49.6023 4.8 49.6018 4.8 49.6013 4.8C49.6008 4.8 49.6003 4.8 49.5999 4.8C49.5994 4.8 49.5989 4.8 49.5984 4.8C49.598 4.8 49.5975 4.8 49.597 4.8C49.5965 4.8 49.596 4.8 49.5956 4.8C49.5951 4.8 49.5946 4.8 49.5941 4.8C49.5936 4.8 49.5932 4.8 49.5927 4.8C49.5922 4.8 49.5917 4.8 49.5912 4.8C49.5907 4.8 49.5903 4.8 49.5898 4.8C49.5893 4.8 49.5888 4.8 49.5883 4.8C49.5878 4.8 49.5874 4.8 49.5869 4.8C49.5864 4.8 49.5859 4.8 49.5854 4.8C49.5849 4.8 49.5845 4.8 49.584 4.8C49.5835 4.8 49.583 4.8 49.5825 4.8C49.582 4.8 49.5815 4.8 49.581 4.8C49.5806 4.8 49.5801 4.8 49.5796 4.8C49.5791 4.8 49.5786 4.8 49.5781 4.8C49.5776 4.8 49.5771 4.8 49.5766 4.8C49.5761 4.8 49.5757 4.8 49.5752 4.8C49.5747 4.8 49.5742 4.8 49.5737 4.8C49.5732 4.8 49.5727 4.8 49.5722 4.8C49.5717 4.8 49.5712 4.8 49.5707 4.8C49.5702 4.8 49.5697 4.8 49.5692 4.8C49.5688 4.8 49.5683 4.8 49.5678 4.8C49.5673 4.8 49.5668 4.8 49.5663 4.8C49.5658 4.8 49.5653 4.8 49.5648 4.8C49.5643 4.8 49.5638 4.8 49.5633 4.8C49.5628 4.8 49.5623 4.8 49.5618 4.8C49.5613 4.8 49.5608 4.8 49.5603 4.8C49.5598 4.8 49.5593 4.8 49.5588 4.8C49.5583 4.8 49.5578 4.8 49.5573 4.8C49.5568 4.8 49.5563 4.8 49.5558 4.8C49.5553 4.8 49.5548 4.8 49.5543 4.8C49.5538 4.8 49.5533 4.8 49.5528 4.8C49.5523 4.8 49.5518 4.8 49.5513 4.8C49.5508 4.8 49.5503 4.8 49.5498 4.8C49.5492 4.8 49.5487 4.8 49.5482 4.8C49.5477 4.8 49.5472 4.8 49.5467 4.8C49.5462 4.8 49.5457 4.8 49.5452 4.8C49.5447 4.8 49.5442 4.8 49.5437 4.8C49.5432 4.8 49.5427 4.8 49.5421 4.8C49.5416 4.8 49.5411 4.8 49.5406 4.8C49.5401 4.8 49.5396 4.8 49.5391 4.8C49.5386 4.8 49.5381 4.8 49.5375 4.8C49.537 4.8 49.5365 4.8 49.536 4.8C49.5355 4.8 49.535 4.8 49.5345 4.8C49.534 4.8 49.5334 4.8 49.5329 4.8C49.5324 4.8 49.5319 4.8 49.5314 4.8C49.5309 4.8 49.5304 4.8 49.5298 4.8C49.5293 4.8 49.5288 4.8 49.5283 4.8C49.5278 4.8 49.5273 4.8 49.5267 4.8C49.5262 4.8 49.5257 4.8 49.5252 4.8C49.5247 4.8 49.5242 4.8 49.5236 4.8C49.5231 4.8 49.5226 4.8 49.5221 4.8C49.5216 4.8 49.521 4.8 49.5205 4.8C49.52 4.8 49.5195 4.8 49.5189 4.8C49.5184 4.8 49.5179 4.8 49.5174 4.8C49.5169 4.8 49.5163 4.8 49.5158 4.8C49.5153 4.8 49.5148 4.8 49.5142 4.8C49.5137 4.8 49.5132 4.8 49.5127 4.8C49.5121 4.8 49.5116 4.8 49.5111 4.8C49.5106 4.8 49.51 4.8 49.5095 4.8C49.509 4.8 49.5085 4.8 49.5079 4.8C49.5074 4.8 49.5069 4.8 49.5064 4.8C49.5058 4.8 49.5053 4.8 49.5048 4.8C49.5042 4.8 49.5037 4.8 49.5032 4.8C49.5027 4.8 49.5021 4.8 49.5016 4.8C49.5011 4.8 49.5005 4.8 49.5 4.8C49.4995 4.8 49.4989 4.8 49.4984 4.8C49.4979 4.8 49.4973 4.8 49.4968 4.8C49.4963 4.8 49.4957 4.8 49.4952 4.8C49.4947 4.8 49.4941 4.8 49.4936 4.8C49.4931 4.8 49.4925 4.8 49.492 4.8C49.4915 4.8 49.4909 4.8 49.4904 4.8C49.4899 4.8 49.4893 4.8 49.4888 4.8C49.4882 4.8 49.4877 4.8 49.4872 4.8C49.4866 4.8 49.4861 4.8 49.4856 4.8C49.485 4.8 49.4845 4.8 49.4839 4.8C49.4834 4.8 49.4829 4.8 49.4823 4.8C49.4818 4.8 49.4812 4.8 49.4807 4.8C49.4802 4.8 49.4796 4.8 49.4791 4.8C49.4785 4.8 49.478 4.8 49.4774 4.8C49.4769 4.8 49.4764 4.8 49.4758 4.8C49.4753 4.8 49.4747 4.8 49.4742 4.8C49.4736 4.8 49.4731 4.8 49.4726 4.8C49.472 4.8 49.4715 4.8 49.4709 4.8C49.4704 4.8 49.4698 4.8 49.4693 4.8C49.4687 4.8 49.4682 4.8 49.4676 4.8C49.4671 4.8 49.4665 4.8 49.466 4.8C49.4654 4.8 49.4649 4.8 49.4643 4.8C49.4638 4.8 49.4632 4.8 49.4627 4.8C49.4621 4.8 49.4616 4.8 49.461 4.8C49.4605 4.8 49.4599 4.8 49.4594 4.8C49.4588 4.8 49.4583 4.8 49.4577 4.8C49.4572 4.8 49.4566 4.8 49.4561 4.8C49.4555 4.8 49.455 4.8 49.4544 4.8C49.4539 4.8 49.4533 4.8 49.4528 4.8C49.4522 4.8 49.4516 4.8 49.4511 4.8C49.4505 4.8 49.45 4.8 49.4494 4.8C49.4489 4.8 49.4483 4.8 49.4478 4.8C49.4472 4.8 49.4466 4.8 49.4461 4.8C49.4455 4.8 49.445 4.8 49.4444 4.8C49.4438 4.8 49.4433 4.8 49.4427 4.8C49.4422 4.8 49.4416 4.8 49.441 4.8C49.4405 4.8 49.4399 4.8 49.4394 4.8C49.4388 4.8 49.4382 4.8 49.4377 4.8C49.4371 4.8 49.4366 4.8 49.436 4.8C49.4354 4.8 49.4349 4.8 49.4343 4.8C49.4337 4.8 49.4332 4.8 49.4326 4.8C49.432 4.8 49.4315 4.8 49.4309 4.8C49.4303 4.8 49.4298 4.8 49.4292 4.8C49.4286 4.8 49.4281 4.8 49.4275 4.8C49.4269 4.8 49.4264 4.8 49.4258 4.8C49.4252 4.8 49.4247 4.8 49.4241 4.8C49.4235 4.8 49.423 4.8 49.4224 4.8C49.4218 4.8 49.4213 4.8 49.4207 4.8C49.4201 4.8 49.4195 4.8 49.419 4.8C49.4184 4.8 49.4178 4.8 49.4173 4.8C49.4167 4.8 49.4161 4.8 49.4155 4.8C49.415 4.8 49.4144 4.8 49.4138 4.8C49.4133 4.8 49.4127 4.8 49.4121 4.8C49.4115 4.8 49.411 4.8 49.4104 4.8C49.4098 4.8 49.4092 4.8 49.4087 4.8C49.4081 4.8 49.4075 4.8 49.4069 4.8C49.4063 4.8 49.4058 4.8 49.4052 4.8C49.4046 4.8 49.404 4.8 49.4035 4.8C49.4029 4.8 49.4023 4.8 49.4017 4.8C49.4011 4.8 49.4006 4.8 49.4 4.8C49.3994 4.8 49.3988 4.8 49.3982 4.8C49.3977 4.8 49.3971 4.8 49.3965 4.8C49.3959 4.8 49.3953 4.8 49.3947 4.8C49.3942 4.8 49.3936 4.8 49.393 4.8C49.3924 4.8 49.3918 4.8 49.3912 4.8C49.3907 4.8 49.3901 4.8 49.3895 4.8C49.3889 4.8 49.3883 4.8 49.3877 4.8C49.3872 4.8 49.3866 4.8 49.386 4.8C49.3854 4.8 49.3848 4.8 49.3842 4.8C49.3836 4.8 49.383 4.8 49.3825 4.8C49.3819 4.8 49.3813 4.8 49.3807 4.8C49.3801 4.8 49.3795 4.8 49.3789 4.8C49.3783 4.8 49.3777 4.8 49.3772 4.8C49.3766 4.8 49.376 4.8 49.3754 4.8C49.3748 4.8 49.3742 4.8 49.3736 4.8C49.373 4.8 49.3724 4.8 49.3718 4.8C49.3712 4.8 49.3706 4.8 49.37 4.8C49.3695 4.8 49.3689 4.8 49.3683 4.8C49.3677 4.8 49.3671 4.8 49.3665 4.8C49.3659 4.8 49.3653 4.8 49.3647 4.8C49.3641 4.8 49.3635 4.8 49.3629 4.8C49.3623 4.8 49.3617 4.8 49.3611 4.8C49.3605 4.8 49.3599 4.8 49.3593 4.8C49.3587 4.8 49.3581 4.8 49.3575 4.8C49.3569 4.8 49.3563 4.8 49.3557 4.8C49.3551 4.8 49.3545 4.8 49.3539 4.8C49.3533 4.8 49.3527 4.8 49.3521 4.8C49.3515 4.8 49.3509 4.8 49.3503 4.8C49.3497 4.8 49.3491 4.8 49.3485 4.8C49.3479 4.8 49.3473 4.8 49.3467 4.8C49.3461 4.8 49.3455 4.8 49.3449 4.8C49.3443 4.8 49.3436 4.8 49.343 4.8C49.3424 4.8 49.3418 4.8 49.3412 4.8C49.3406 4.8 49.34 4.8 49.3394 4.8C49.3388 4.8 49.3382 4.8 49.3376 4.8C49.337 4.8 49.3364 4.8 49.3358 4.8C49.3351 4.8 49.3345 4.8 49.3339 4.8C49.3333 4.8 49.3327 4.8 49.3321 4.8C49.3315 4.8 49.3309 4.8 49.3303 4.8C49.3296 4.8 49.329 4.8 49.3284 4.8C49.3278 4.8 49.3272 4.8 49.3266 4.8C49.326 4.8 49.3254 4.8 49.3247 4.8C49.3241 4.8 49.3235 4.8 49.3229 4.8C49.3223 4.8 49.3217 4.8 49.321 4.8C49.3204 4.8 49.3198 4.8 49.3192 4.8C49.3186 4.8 49.318 4.8 49.3173 4.8C49.3167 4.8 49.3161 4.8 49.3155 4.8C49.3149 4.8 49.3143 4.8 49.3136 4.8C49.313 4.8 49.3124 4.8 49.3118 4.8C49.3112 4.8 49.3105 4.8 49.3099 4.8C49.3093 4.8 49.3087 4.8 49.3081 4.8C49.3074 4.8 49.3068 4.8 49.3062 4.8C49.3056 4.8 49.3049 4.8 49.3043 4.8C49.3037 4.8 49.3031 4.8 49.3024 4.8C49.3018 4.8 49.3012 4.8 49.3006 4.8C49.3 4.8 49.2993 4.8 49.2987 4.8C49.2981 4.8 49.2974 4.8 49.2968 4.8C49.2962 4.8 49.2956 4.8 49.2949 4.8C49.2943 4.8 49.2937 4.8 49.2931 4.8C49.2924 4.8 49.2918 4.8 49.2912 4.8C49.2905 4.8 49.2899 4.8 49.2893 4.8C49.2887 4.8 49.288 4.8 49.2874 4.8C49.2868 4.8 49.2861 4.8 49.2855 4.8C49.2849 4.8 49.2842 4.8 49.2836 4.8C49.283 4.8 49.2823 4.8 49.2817 4.8C49.2811 4.8 49.2804 4.8 49.2798 4.8C49.2792 4.8 49.2785 4.8 49.2779 4.8C49.2773 4.8 49.2766 4.8 49.276 4.8C49.2754 4.8 49.2747 4.8 49.2741 4.8C49.2735 4.8 49.2728 4.8 49.2722 4.8C49.2715 4.8 49.2709 4.8 49.2703 4.8C49.2696 4.8 49.269 4.8 49.2684 4.8C49.2677 4.8 49.2671 4.8 49.2664 4.8C49.2658 4.8 49.2652 4.8 49.2645 4.8C49.2639 4.8 49.2632 4.8 49.2626 4.8C49.262 4.8 49.2613 4.8 49.2607 4.8C49.26 4.8 49.2594 4.8 49.2587 4.8C49.2581 4.8 49.2575 4.8 49.2568 4.8C49.2562 4.8 49.2555 4.8 49.2549 4.8C49.2542 4.8 49.2536 4.8 49.2529 4.8C49.2523 4.8 49.2517 4.8 49.251 4.8C49.2504 4.8 49.2497 4.8 49.2491 4.8C49.2484 4.8 49.2478 4.8 49.2471 4.8C49.2465 4.8 49.2458 4.8 49.2452 4.8C49.2445 4.8 49.2439 4.8 49.2432 4.8C49.2426 4.8 49.2419 4.8 49.2413 4.8C49.2406 4.8 49.24 4.8 49.2393 4.8C49.2387 4.8 49.238 4.8 49.2374 4.8C49.2367 4.8 49.2361 4.8 49.2354 4.8C49.2348 4.8 49.2341 4.8 49.2335 4.8C49.2328 4.8 49.2322 4.8 49.2315 4.8C49.2309 4.8 49.2302 4.8 49.2295 4.8C49.2289 4.8 49.2282 4.8 49.2276 4.8C49.2269 4.8 49.2263 4.8 49.2256 4.8C49.225 4.8 49.2243 4.8 49.2236 4.8C49.223 4.8 49.2223 4.8 49.2217 4.8C49.221 4.8 49.2204 4.8 49.2197 4.8C49.219 4.8 49.2184 4.8 49.2177 4.8C49.2171 4.8 49.2164 4.8 49.2157 4.8C49.2151 4.8 49.2144 4.8 49.2138 4.8C49.2131 4.8 49.2124 4.8 49.2118 4.8C49.2111 4.8 49.2104 4.8 49.2098 4.8C49.2091 4.8 49.2085 4.8 49.2078 4.8C49.2071 4.8 49.2065 4.8 49.2058 4.8C49.2051 4.8 49.2045 4.8 49.2038 4.8C49.2031 4.8 49.2025 4.8 49.2018 4.8C49.2011 4.8 49.2005 4.8 49.1998 4.8C49.1991 4.8 49.1985 4.8 49.1978 4.8C49.1971 4.8 49.1965 4.8 49.1958 4.8C49.1951 4.8 49.1945 4.8 49.1938 4.8C49.1931 4.8 49.1924 4.8 49.1918 4.8C49.1911 4.8 49.1904 4.8 49.1898 4.8C49.1891 4.8 49.1884 4.8 49.1877 4.8C49.1871 4.8 49.1864 4.8 49.1857 4.8C49.1851 4.8 49.1844 4.8 49.1837 4.8C49.183 4.8 49.1824 4.8 49.1817 4.8C49.181 4.8 49.1803 4.8 49.1797 4.8C49.179 4.8 49.1783 4.8 49.1776 4.8C49.177 4.8 49.1763 4.8 49.1756 4.8C49.1749 4.8 49.1743 4.8 49.1736 4.8C49.1729 4.8 49.1722 4.8 49.1715 4.8C49.1709 4.8 49.1702 4.8 49.1695 4.8C49.1688 4.8 49.1681 4.8 49.1675 4.8C49.1668 4.8 49.1661 4.8 49.1654 4.8C49.1647 4.8 49.1641 4.8 49.1634 4.8C49.1627 4.8 49.162 4.8 49.1613 4.8C49.1606 4.8 49.16 4.8 49.1593 4.8C49.1586 4.8 49.1579 4.8 49.1572 4.8C49.1565 4.8 49.1559 4.8 49.1552 4.8C49.1545 4.8 49.1538 4.8 49.1531 4.8C49.1524 4.8 49.1517 4.8 49.1511 4.8C49.1504 4.8 49.1497 4.8 49.149 4.8C49.1483 4.8 49.1476 4.8 49.1469 4.8C49.1462 4.8 49.1456 4.8 49.1449 4.8C49.1442 4.8 49.1435 4.8 49.1428 4.8C49.1421 4.8 49.1414 4.8 49.1407 4.8C49.14 4.8 49.1393 4.8 49.1387 4.8C49.138 4.8 49.1373 4.8 49.1366 4.8C49.1359 4.8 49.1352 4.8 49.1345 4.8C49.1338 4.8 49.1331 4.8 49.1324 4.8C49.1317 4.8 49.131 4.8 49.1303 4.8C49.1296 4.8 49.1289 4.8 49.1283 4.8C49.1276 4.8 49.1269 4.8 49.1262 4.8C49.1255 4.8 49.1248 4.8 49.1241 4.8C49.1234 4.8 49.1227 4.8 49.122 4.8C49.1213 4.8 49.1206 4.8 49.1199 4.8C49.1192 4.8 49.1185 4.8 49.1178 4.8C49.1171 4.8 49.1164 4.8 49.1157 4.8C49.115 4.8 49.1143 4.8 49.1136 4.8C49.1129 4.8 49.1122 4.8 49.1115 4.8C49.1108 4.8 49.1101 4.8 49.1094 4.8C49.1087 4.8 49.108 4.8 49.1073 4.8C49.1066 4.8 49.1059 4.8 49.1051 4.8C49.1044 4.8 49.1037 4.8 49.103 4.8C49.1023 4.8 49.1016 4.8 49.1009 4.8C49.1002 4.8 49.0995 4.8 49.0988 4.8C49.0981 4.8 49.0974 4.8 49.0967 4.8C49.096 4.8 49.0953 4.8 49.0946 4.8C49.0938 4.8 49.0931 4.8 49.0924 4.8C49.0917 4.8 49.091 4.8 49.0903 4.8C49.0896 4.8 49.0889 4.8 49.0882 4.8C49.0875 4.8 49.0867 4.8 49.086 4.8C49.0853 4.8 49.0846 4.8 49.0839 4.8C49.0832 4.8 49.0825 4.8 49.0818 4.8C49.081 4.8 49.0803 4.8 49.0796 4.8C49.0789 4.8 49.0782 4.8 49.0775 4.8C49.0767 4.8 49.076 4.8 49.0753 4.8C49.0746 4.8 49.0739 4.8 49.0732 4.8C49.0725 4.8 49.0717 4.8 49.071 4.8C49.0703 4.8 49.0696 4.8 49.0689 4.8C49.0681 4.8 49.0674 4.8 49.0667 4.8C49.066 4.8 49.0653 4.8 49.0645 4.8C49.0638 4.8 49.0631 4.8 49.0624 4.8C49.0617 4.8 49.0609 4.8 49.0602 4.8C49.0595 4.8 49.0588 4.8 49.0581 4.8C49.0573 4.8 49.0566 4.8 49.0559 4.8C49.0552 4.8 49.0544 4.8 49.0537 4.8C49.053 4.8 49.0523 4.8 49.0515 4.8C49.0508 4.8 49.0501 4.8 49.0494 4.8C49.0486 4.8 49.0479 4.8 49.0472 4.8C49.0465 4.8 49.0457 4.8 49.045 4.8C49.0443 4.8 49.0436 4.8 49.0428 4.8C49.0421 4.8 49.0414 4.8 49.0406 4.8C49.0399 4.8 49.0392 4.8 49.0384 4.8C49.0377 4.8 49.037 4.8 49.0363 4.8C49.0355 4.8 49.0348 4.8 49.0341 4.8C49.0333 4.8 49.0326 4.8 49.0319 4.8C49.0311 4.8 49.0304 4.8 49.0297 4.8C49.0289 4.8 49.0282 4.8 49.0275 4.8C49.0267 4.8 49.026 4.8 49.0253 4.8C49.0245 4.8 49.0238 4.8 49.0231 4.8C49.0223 4.8 49.0216 4.8 49.0209 4.8C49.0201 4.8 49.0194 4.8 49.0186 4.8C49.0179 4.8 49.0172 4.8 49.0164 4.8C49.0157 4.8 49.015 4.8 49.0142 4.8C49.0135 4.8 49.0127 4.8 49.012 4.8C49.0113 4.8 49.0105 4.8 49.0098 4.8C49.009 4.8 49.0083 4.8 49.0076 4.8C49.0068 4.8 49.0061 4.8 49.0053 4.8C49.0046 4.8 49.0038 4.8 49.0031 4.8C49.0024 4.8 49.0016 4.8 49.0009 4.8C49.0001 4.8 48.9994 4.8 48.9986 4.8C48.9979 4.8 48.9972 4.8 48.9964 4.8C48.9957 4.8 48.9949 4.8 48.9942 4.8C48.9934 4.8 48.9927 4.8 48.9919 4.8C48.9912 4.8 48.9904 4.8 48.9897 4.8C48.9889 4.8 48.9882 4.8 48.9874 4.8C48.9867 4.8 48.9859 4.8 48.9852 4.8C48.9845 4.8 48.9837 4.8 48.983 4.8C48.9822 4.8 48.9814 4.8 48.9807 4.8C48.9799 4.8 48.9792 4.8 48.9784 4.8C48.9777 4.8 48.9769 4.8 48.9762 4.8C48.9754 4.8 48.9747 4.8 48.9739 4.8C48.9732 4.8 48.9724 4.8 48.9717 4.8C48.9709 4.8 48.9702 4.8 48.9694 4.8C48.9686 4.8 48.9679 4.8 48.9671 4.8C48.9664 4.8 48.9656 4.8 48.9649 4.8C48.9641 4.8 48.9634 4.8 48.9626 4.8C48.9618 4.8 48.9611 4.8 48.9603 4.8C48.9596 4.8 48.9588 4.8 48.958 4.8C48.9573 4.8 48.9565 4.8 48.9558 4.8C48.955 4.8 48.9542 4.8 48.9535 4.8C48.9527 4.8 48.952 4.8 48.9512 4.8C48.9504 4.8 48.9497 4.8 48.9489 4.8C48.9482 4.8 48.9474 4.8 48.9466 4.8C48.9459 4.8 48.9451 4.8 48.9443 4.8C48.9436 4.8 48.9428 4.8 48.942 4.8C48.9413 4.8 48.9405 4.8 48.9398 4.8C48.939 4.8 48.9382 4.8 48.9375 4.8C48.9367 4.8 48.9359 4.8 48.9352 4.8C48.9344 4.8 48.9336 4.8 48.9328 4.8C48.9321 4.8 48.9313 4.8 48.9305 4.8C48.9298 4.8 48.929 4.8 48.9282 4.8C48.9275 4.8 48.9267 4.8 48.9259 4.8C48.9252 4.8 48.9244 4.8 48.9236 4.8C48.9228 4.8 48.9221 4.8 48.9213 4.8C48.9205 4.8 48.9198 4.8 48.919 4.8C48.9182 4.8 48.9174 4.8 48.9167 4.8C48.9159 4.8 48.9151 4.8 48.9143 4.8C48.9136 4.8 48.9128 4.8 48.912 4.8C48.9112 4.8 48.9105 4.8 48.9097 4.8C48.9089 4.8 48.9081 4.8 48.9074 4.8C48.9066 4.8 48.9058 4.8 48.905 4.8C48.9042 4.8 48.9035 4.8 48.9027 4.8C48.9019 4.8 48.9011 4.8 48.9004 4.8C48.8996 4.8 48.8988 4.8 48.898 4.8C48.8972 4.8 48.8965 4.8 48.8957 4.8C48.8949 4.8 48.8941 4.8 48.8933 4.8C48.8925 4.8 48.8918 4.8 48.891 4.8C48.8902 4.8 48.8894 4.8 48.8886 4.8C48.8878 4.8 48.8871 4.8 48.8863 4.8C48.8855 4.8 48.8847 4.8 48.8839 4.8C48.8831 4.8 48.8824 4.8 48.8816 4.8C48.8808 4.8 48.88 4.8 48.8792 4.8C48.8784 4.8 48.8776 4.8 48.8768 4.8C48.8761 4.8 48.8753 4.8 48.8745 4.8C48.8737 4.8 48.8729 4.8 48.8721 4.8C48.8713 4.8 48.8705 4.8 48.8697 4.8C48.869 4.8 48.8682 4.8 48.8674 4.8C48.8666 4.8 48.8658 4.8 48.865 4.8V6.8C48.8658 6.8 48.8666 6.8 48.8674 6.8C48.8682 6.8 48.869 6.8 48.8697 6.8C48.8705 6.8 48.8713 6.8 48.8721 6.8C48.8729 6.8 48.8737 6.8 48.8745 6.8C48.8753 6.8 48.8761 6.8 48.8768 6.8C48.8776 6.8 48.8784 6.8 48.8792 6.8C48.88 6.8 48.8808 6.8 48.8816 6.8C48.8824 6.8 48.8831 6.8 48.8839 6.8C48.8847 6.8 48.8855 6.8 48.8863 6.8C48.8871 6.8 48.8878 6.8 48.8886 6.8C48.8894 6.8 48.8902 6.8 48.891 6.8C48.8918 6.8 48.8925 6.8 48.8933 6.8C48.8941 6.8 48.8949 6.8 48.8957 6.8C48.8965 6.8 48.8972 6.8 48.898 6.8C48.8988 6.8 48.8996 6.8 48.9004 6.8C48.9011 6.8 48.9019 6.8 48.9027 6.8C48.9035 6.8 48.9042 6.8 48.905 6.8C48.9058 6.8 48.9066 6.8 48.9074 6.8C48.9081 6.8 48.9089 6.8 48.9097 6.8C48.9105 6.8 48.9112 6.8 48.912 6.8C48.9128 6.8 48.9136 6.8 48.9143 6.8C48.9151 6.8 48.9159 6.8 48.9167 6.8C48.9174 6.8 48.9182 6.8 48.919 6.8C48.9198 6.8 48.9205 6.8 48.9213 6.8C48.9221 6.8 48.9228 6.8 48.9236 6.8C48.9244 6.8 48.9252 6.8 48.9259 6.8C48.9267 6.8 48.9275 6.8 48.9282 6.8C48.929 6.8 48.9298 6.8 48.9305 6.8C48.9313 6.8 48.9321 6.8 48.9328 6.8C48.9336 6.8 48.9344 6.8 48.9352 6.8C48.9359 6.8 48.9367 6.8 48.9375 6.8C48.9382 6.8 48.939 6.8 48.9398 6.8C48.9405 6.8 48.9413 6.8 48.942 6.8C48.9428 6.8 48.9436 6.8 48.9443 6.8C48.9451 6.8 48.9459 6.8 48.9466 6.8C48.9474 6.8 48.9482 6.8 48.9489 6.8C48.9497 6.8 48.9504 6.8 48.9512 6.8C48.952 6.8 48.9527 6.8 48.9535 6.8C48.9542 6.8 48.955 6.8 48.9558 6.8C48.9565 6.8 48.9573 6.8 48.958 6.8C48.9588 6.8 48.9596 6.8 48.9603 6.8C48.9611 6.8 48.9618 6.8 48.9626 6.8C48.9634 6.8 48.9641 6.8 48.9649 6.8C48.9656 6.8 48.9664 6.8 48.9671 6.8C48.9679 6.8 48.9686 6.8 48.9694 6.8C48.9702 6.8 48.9709 6.8 48.9717 6.8C48.9724 6.8 48.9732 6.8 48.9739 6.8C48.9747 6.8 48.9754 6.8 48.9762 6.8C48.9769 6.8 48.9777 6.8 48.9784 6.8C48.9792 6.8 48.9799 6.8 48.9807 6.8C48.9814 6.8 48.9822 6.8 48.983 6.8C48.9837 6.8 48.9845 6.8 48.9852 6.8C48.9859 6.8 48.9867 6.8 48.9874 6.8C48.9882 6.8 48.9889 6.8 48.9897 6.8C48.9904 6.8 48.9912 6.8 48.9919 6.8C48.9927 6.8 48.9934 6.8 48.9942 6.8C48.9949 6.8 48.9957 6.8 48.9964 6.8C48.9972 6.8 48.9979 6.8 48.9986 6.8C48.9994 6.8 49.0001 6.8 49.0009 6.8C49.0016 6.8 49.0024 6.8 49.0031 6.8C49.0038 6.8 49.0046 6.8 49.0053 6.8C49.0061 6.8 49.0068 6.8 49.0076 6.8C49.0083 6.8 49.009 6.8 49.0098 6.8C49.0105 6.8 49.0113 6.8 49.012 6.8C49.0127 6.8 49.0135 6.8 49.0142 6.8C49.015 6.8 49.0157 6.8 49.0164 6.8C49.0172 6.8 49.0179 6.8 49.0186 6.8C49.0194 6.8 49.0201 6.8 49.0209 6.8C49.0216 6.8 49.0223 6.8 49.0231 6.8C49.0238 6.8 49.0245 6.8 49.0253 6.8C49.026 6.8 49.0267 6.8 49.0275 6.8C49.0282 6.8 49.0289 6.8 49.0297 6.8C49.0304 6.8 49.0311 6.8 49.0319 6.8C49.0326 6.8 49.0333 6.8 49.0341 6.8C49.0348 6.8 49.0355 6.8 49.0363 6.8C49.037 6.8 49.0377 6.8 49.0384 6.8C49.0392 6.8 49.0399 6.8 49.0406 6.8C49.0414 6.8 49.0421 6.8 49.0428 6.8C49.0436 6.8 49.0443 6.8 49.045 6.8C49.0457 6.8 49.0465 6.8 49.0472 6.8C49.0479 6.8 49.0486 6.8 49.0494 6.8C49.0501 6.8 49.0508 6.8 49.0515 6.8C49.0523 6.8 49.053 6.8 49.0537 6.8C49.0544 6.8 49.0552 6.8 49.0559 6.8C49.0566 6.8 49.0573 6.8 49.0581 6.8C49.0588 6.8 49.0595 6.8 49.0602 6.8C49.0609 6.8 49.0617 6.8 49.0624 6.8C49.0631 6.8 49.0638 6.8 49.0645 6.8C49.0653 6.8 49.066 6.8 49.0667 6.8C49.0674 6.8 49.0681 6.8 49.0689 6.8C49.0696 6.8 49.0703 6.8 49.071 6.8C49.0717 6.8 49.0725 6.8 49.0732 6.8C49.0739 6.8 49.0746 6.8 49.0753 6.8C49.076 6.8 49.0767 6.8 49.0775 6.8C49.0782 6.8 49.0789 6.8 49.0796 6.8C49.0803 6.8 49.081 6.8 49.0818 6.8C49.0825 6.8 49.0832 6.8 49.0839 6.8C49.0846 6.8 49.0853 6.8 49.086 6.8C49.0867 6.8 49.0875 6.8 49.0882 6.8C49.0889 6.8 49.0896 6.8 49.0903 6.8C49.091 6.8 49.0917 6.8 49.0924 6.8C49.0931 6.8 49.0938 6.8 49.0946 6.8C49.0953 6.8 49.096 6.8 49.0967 6.8C49.0974 6.8 49.0981 6.8 49.0988 6.8C49.0995 6.8 49.1002 6.8 49.1009 6.8C49.1016 6.8 49.1023 6.8 49.103 6.8C49.1037 6.8 49.1044 6.8 49.1051 6.8C49.1059 6.8 49.1066 6.8 49.1073 6.8C49.108 6.8 49.1087 6.8 49.1094 6.8C49.1101 6.8 49.1108 6.8 49.1115 6.8C49.1122 6.8 49.1129 6.8 49.1136 6.8C49.1143 6.8 49.115 6.8 49.1157 6.8C49.1164 6.8 49.1171 6.8 49.1178 6.8C49.1185 6.8 49.1192 6.8 49.1199 6.8C49.1206 6.8 49.1213 6.8 49.122 6.8C49.1227 6.8 49.1234 6.8 49.1241 6.8C49.1248 6.8 49.1255 6.8 49.1262 6.8C49.1269 6.8 49.1276 6.8 49.1283 6.8C49.1289 6.8 49.1296 6.8 49.1303 6.8C49.131 6.8 49.1317 6.8 49.1324 6.8C49.1331 6.8 49.1338 6.8 49.1345 6.8C49.1352 6.8 49.1359 6.8 49.1366 6.8C49.1373 6.8 49.138 6.8 49.1387 6.8C49.1393 6.8 49.14 6.8 49.1407 6.8C49.1414 6.8 49.1421 6.8 49.1428 6.8C49.1435 6.8 49.1442 6.8 49.1449 6.8C49.1456 6.8 49.1462 6.8 49.1469 6.8C49.1476 6.8 49.1483 6.8 49.149 6.8C49.1497 6.8 49.1504 6.8 49.1511 6.8C49.1517 6.8 49.1524 6.8 49.1531 6.8C49.1538 6.8 49.1545 6.8 49.1552 6.8C49.1559 6.8 49.1565 6.8 49.1572 6.8C49.1579 6.8 49.1586 6.8 49.1593 6.8C49.16 6.8 49.1606 6.8 49.1613 6.8C49.162 6.8 49.1627 6.8 49.1634 6.8C49.1641 6.8 49.1647 6.8 49.1654 6.8C49.1661 6.8 49.1668 6.8 49.1675 6.8C49.1681 6.8 49.1688 6.8 49.1695 6.8C49.1702 6.8 49.1709 6.8 49.1715 6.8C49.1722 6.8 49.1729 6.8 49.1736 6.8C49.1743 6.8 49.1749 6.8 49.1756 6.8C49.1763 6.8 49.177 6.8 49.1776 6.8C49.1783 6.8 49.179 6.8 49.1797 6.8C49.1803 6.8 49.181 6.8 49.1817 6.8C49.1824 6.8 49.183 6.8 49.1837 6.8C49.1844 6.8 49.1851 6.8 49.1857 6.8C49.1864 6.8 49.1871 6.8 49.1877 6.8C49.1884 6.8 49.1891 6.8 49.1898 6.8C49.1904 6.8 49.1911 6.8 49.1918 6.8C49.1924 6.8 49.1931 6.8 49.1938 6.8C49.1945 6.8 49.1951 6.8 49.1958 6.8C49.1965 6.8 49.1971 6.8 49.1978 6.8C49.1985 6.8 49.1991 6.8 49.1998 6.8C49.2005 6.8 49.2011 6.8 49.2018 6.8C49.2025 6.8 49.2031 6.8 49.2038 6.8C49.2045 6.8 49.2051 6.8 49.2058 6.8C49.2065 6.8 49.2071 6.8 49.2078 6.8C49.2085 6.8 49.2091 6.8 49.2098 6.8C49.2104 6.8 49.2111 6.8 49.2118 6.8C49.2124 6.8 49.2131 6.8 49.2138 6.8C49.2144 6.8 49.2151 6.8 49.2157 6.8C49.2164 6.8 49.2171 6.8 49.2177 6.8C49.2184 6.8 49.219 6.8 49.2197 6.8C49.2204 6.8 49.221 6.8 49.2217 6.8C49.2223 6.8 49.223 6.8 49.2236 6.8C49.2243 6.8 49.225 6.8 49.2256 6.8C49.2263 6.8 49.2269 6.8 49.2276 6.8C49.2282 6.8 49.2289 6.8 49.2295 6.8C49.2302 6.8 49.2309 6.8 49.2315 6.8C49.2322 6.8 49.2328 6.8 49.2335 6.8C49.2341 6.8 49.2348 6.8 49.2354 6.8C49.2361 6.8 49.2367 6.8 49.2374 6.8C49.238 6.8 49.2387 6.8 49.2393 6.8C49.24 6.8 49.2406 6.8 49.2413 6.8C49.2419 6.8 49.2426 6.8 49.2432 6.8C49.2439 6.8 49.2445 6.8 49.2452 6.8C49.2458 6.8 49.2465 6.8 49.2471 6.8C49.2478 6.8 49.2484 6.8 49.2491 6.8C49.2497 6.8 49.2504 6.8 49.251 6.8C49.2517 6.8 49.2523 6.8 49.2529 6.8C49.2536 6.8 49.2542 6.8 49.2549 6.8C49.2555 6.8 49.2562 6.8 49.2568 6.8C49.2575 6.8 49.2581 6.8 49.2587 6.8C49.2594 6.8 49.26 6.8 49.2607 6.8C49.2613 6.8 49.262 6.8 49.2626 6.8C49.2632 6.8 49.2639 6.8 49.2645 6.8C49.2652 6.8 49.2658 6.8 49.2664 6.8C49.2671 6.8 49.2677 6.8 49.2684 6.8C49.269 6.8 49.2696 6.8 49.2703 6.8C49.2709 6.8 49.2715 6.8 49.2722 6.8C49.2728 6.8 49.2735 6.8 49.2741 6.8C49.2747 6.8 49.2754 6.8 49.276 6.8C49.2766 6.8 49.2773 6.8 49.2779 6.8C49.2785 6.8 49.2792 6.8 49.2798 6.8C49.2804 6.8 49.2811 6.8 49.2817 6.8C49.2823 6.8 49.283 6.8 49.2836 6.8C49.2842 6.8 49.2849 6.8 49.2855 6.8C49.2861 6.8 49.2868 6.8 49.2874 6.8C49.288 6.8 49.2887 6.8 49.2893 6.8C49.2899 6.8 49.2905 6.8 49.2912 6.8C49.2918 6.8 49.2924 6.8 49.2931 6.8C49.2937 6.8 49.2943 6.8 49.2949 6.8C49.2956 6.8 49.2962 6.8 49.2968 6.8C49.2974 6.8 49.2981 6.8 49.2987 6.8C49.2993 6.8 49.3 6.8 49.3006 6.8C49.3012 6.8 49.3018 6.8 49.3024 6.8C49.3031 6.8 49.3037 6.8 49.3043 6.8C49.3049 6.8 49.3056 6.8 49.3062 6.8C49.3068 6.8 49.3074 6.8 49.3081 6.8C49.3087 6.8 49.3093 6.8 49.3099 6.8C49.3105 6.8 49.3112 6.8 49.3118 6.8C49.3124 6.8 49.313 6.8 49.3136 6.8C49.3143 6.8 49.3149 6.8 49.3155 6.8C49.3161 6.8 49.3167 6.8 49.3173 6.8C49.318 6.8 49.3186 6.8 49.3192 6.8C49.3198 6.8 49.3204 6.8 49.321 6.8C49.3217 6.8 49.3223 6.8 49.3229 6.8C49.3235 6.8 49.3241 6.8 49.3247 6.8C49.3254 6.8 49.326 6.8 49.3266 6.8C49.3272 6.8 49.3278 6.8 49.3284 6.8C49.329 6.8 49.3296 6.8 49.3303 6.8C49.3309 6.8 49.3315 6.8 49.3321 6.8C49.3327 6.8 49.3333 6.8 49.3339 6.8C49.3345 6.8 49.3351 6.8 49.3358 6.8C49.3364 6.8 49.337 6.8 49.3376 6.8C49.3382 6.8 49.3388 6.8 49.3394 6.8C49.34 6.8 49.3406 6.8 49.3412 6.8C49.3418 6.8 49.3424 6.8 49.343 6.8C49.3436 6.8 49.3443 6.8 49.3449 6.8C49.3455 6.8 49.3461 6.8 49.3467 6.8C49.3473 6.8 49.3479 6.8 49.3485 6.8C49.3491 6.8 49.3497 6.8 49.3503 6.8C49.3509 6.8 49.3515 6.8 49.3521 6.8C49.3527 6.8 49.3533 6.8 49.3539 6.8C49.3545 6.8 49.3551 6.8 49.3557 6.8C49.3563 6.8 49.3569 6.8 49.3575 6.8C49.3581 6.8 49.3587 6.8 49.3593 6.8C49.3599 6.8 49.3605 6.8 49.3611 6.8C49.3617 6.8 49.3623 6.8 49.3629 6.8C49.3635 6.8 49.3641 6.8 49.3647 6.8C49.3653 6.8 49.3659 6.8 49.3665 6.8C49.3671 6.8 49.3677 6.8 49.3683 6.8C49.3689 6.8 49.3695 6.8 49.37 6.8C49.3706 6.8 49.3712 6.8 49.3718 6.8C49.3724 6.8 49.373 6.8 49.3736 6.8C49.3742 6.8 49.3748 6.8 49.3754 6.8C49.376 6.8 49.3766 6.8 49.3772 6.8C49.3777 6.8 49.3783 6.8 49.3789 6.8C49.3795 6.8 49.3801 6.8 49.3807 6.8C49.3813 6.8 49.3819 6.8 49.3825 6.8C49.383 6.8 49.3836 6.8 49.3842 6.8C49.3848 6.8 49.3854 6.8 49.386 6.8C49.3866 6.8 49.3872 6.8 49.3877 6.8C49.3883 6.8 49.3889 6.8 49.3895 6.8C49.3901 6.8 49.3907 6.8 49.3912 6.8C49.3918 6.8 49.3924 6.8 49.393 6.8C49.3936 6.8 49.3942 6.8 49.3947 6.8C49.3953 6.8 49.3959 6.8 49.3965 6.8C49.3971 6.8 49.3977 6.8 49.3982 6.8C49.3988 6.8 49.3994 6.8 49.4 6.8C49.4006 6.8 49.4011 6.8 49.4017 6.8C49.4023 6.8 49.4029 6.8 49.4035 6.8C49.404 6.8 49.4046 6.8 49.4052 6.8C49.4058 6.8 49.4063 6.8 49.4069 6.8C49.4075 6.8 49.4081 6.8 49.4087 6.8C49.4092 6.8 49.4098 6.8 49.4104 6.8C49.411 6.8 49.4115 6.8 49.4121 6.8C49.4127 6.8 49.4133 6.8 49.4138 6.8C49.4144 6.8 49.415 6.8 49.4155 6.8C49.4161 6.8 49.4167 6.8 49.4173 6.8C49.4178 6.8 49.4184 6.8 49.419 6.8C49.4195 6.8 49.4201 6.8 49.4207 6.8C49.4213 6.8 49.4218 6.8 49.4224 6.8C49.423 6.8 49.4235 6.8 49.4241 6.8C49.4247 6.8 49.4252 6.8 49.4258 6.8C49.4264 6.8 49.4269 6.8 49.4275 6.8C49.4281 6.8 49.4286 6.8 49.4292 6.8C49.4298 6.8 49.4303 6.8 49.4309 6.8C49.4315 6.8 49.432 6.8 49.4326 6.8C49.4332 6.8 49.4337 6.8 49.4343 6.8C49.4349 6.8 49.4354 6.8 49.436 6.8C49.4366 6.8 49.4371 6.8 49.4377 6.8C49.4382 6.8 49.4388 6.8 49.4394 6.8C49.4399 6.8 49.4405 6.8 49.441 6.8C49.4416 6.8 49.4422 6.8 49.4427 6.8C49.4433 6.8 49.4438 6.8 49.4444 6.8C49.445 6.8 49.4455 6.8 49.4461 6.8C49.4466 6.8 49.4472 6.8 49.4478 6.8C49.4483 6.8 49.4489 6.8 49.4494 6.8C49.45 6.8 49.4505 6.8 49.4511 6.8C49.4516 6.8 49.4522 6.8 49.4528 6.8C49.4533 6.8 49.4539 6.8 49.4544 6.8C49.455 6.8 49.4555 6.8 49.4561 6.8C49.4566 6.8 49.4572 6.8 49.4577 6.8C49.4583 6.8 49.4588 6.8 49.4594 6.8C49.4599 6.8 49.4605 6.8 49.461 6.8C49.4616 6.8 49.4621 6.8 49.4627 6.8C49.4632 6.8 49.4638 6.8 49.4643 6.8C49.4649 6.8 49.4654 6.8 49.466 6.8C49.4665 6.8 49.4671 6.8 49.4676 6.8C49.4682 6.8 49.4687 6.8 49.4693 6.8C49.4698 6.8 49.4704 6.8 49.4709 6.8C49.4715 6.8 49.472 6.8 49.4726 6.8C49.4731 6.8 49.4736 6.8 49.4742 6.8C49.4747 6.8 49.4753 6.8 49.4758 6.8C49.4764 6.8 49.4769 6.8 49.4774 6.8C49.478 6.8 49.4785 6.8 49.4791 6.8C49.4796 6.8 49.4802 6.8 49.4807 6.8C49.4812 6.8 49.4818 6.8 49.4823 6.8C49.4829 6.8 49.4834 6.8 49.4839 6.8C49.4845 6.8 49.485 6.8 49.4856 6.8C49.4861 6.8 49.4866 6.8 49.4872 6.8C49.4877 6.8 49.4882 6.8 49.4888 6.8C49.4893 6.8 49.4899 6.8 49.4904 6.8C49.4909 6.8 49.4915 6.8 49.492 6.8C49.4925 6.8 49.4931 6.8 49.4936 6.8C49.4941 6.8 49.4947 6.8 49.4952 6.8C49.4957 6.8 49.4963 6.8 49.4968 6.8C49.4973 6.8 49.4979 6.8 49.4984 6.8C49.4989 6.8 49.4995 6.8 49.5 6.8C49.5005 6.8 49.5011 6.8 49.5016 6.8C49.5021 6.8 49.5027 6.8 49.5032 6.8C49.5037 6.8 49.5042 6.8 49.5048 6.8C49.5053 6.8 49.5058 6.8 49.5064 6.8C49.5069 6.8 49.5074 6.8 49.5079 6.8C49.5085 6.8 49.509 6.8 49.5095 6.8C49.51 6.8 49.5106 6.8 49.5111 6.8C49.5116 6.8 49.5121 6.8 49.5127 6.8C49.5132 6.8 49.5137 6.8 49.5142 6.8C49.5148 6.8 49.5153 6.8 49.5158 6.8C49.5163 6.8 49.5169 6.8 49.5174 6.8C49.5179 6.8 49.5184 6.8 49.5189 6.8C49.5195 6.8 49.52 6.8 49.5205 6.8C49.521 6.8 49.5216 6.8 49.5221 6.8C49.5226 6.8 49.5231 6.8 49.5236 6.8C49.5242 6.8 49.5247 6.8 49.5252 6.8C49.5257 6.8 49.5262 6.8 49.5267 6.8C49.5273 6.8 49.5278 6.8 49.5283 6.8C49.5288 6.8 49.5293 6.8 49.5298 6.8C49.5304 6.8 49.5309 6.8 49.5314 6.8C49.5319 6.8 49.5324 6.8 49.5329 6.8C49.5334 6.8 49.534 6.8 49.5345 6.8C49.535 6.8 49.5355 6.8 49.536 6.8C49.5365 6.8 49.537 6.8 49.5375 6.8C49.5381 6.8 49.5386 6.8 49.5391 6.8C49.5396 6.8 49.5401 6.8 49.5406 6.8C49.5411 6.8 49.5416 6.8 49.5421 6.8C49.5427 6.8 49.5432 6.8 49.5437 6.8C49.5442 6.8 49.5447 6.8 49.5452 6.8C49.5457 6.8 49.5462 6.8 49.5467 6.8C49.5472 6.8 49.5477 6.8 49.5482 6.8C49.5487 6.8 49.5492 6.8 49.5498 6.8C49.5503 6.8 49.5508 6.8 49.5513 6.8C49.5518 6.8 49.5523 6.8 49.5528 6.8C49.5533 6.8 49.5538 6.8 49.5543 6.8C49.5548 6.8 49.5553 6.8 49.5558 6.8C49.5563 6.8 49.5568 6.8 49.5573 6.8C49.5578 6.8 49.5583 6.8 49.5588 6.8C49.5593 6.8 49.5598 6.8 49.5603 6.8C49.5608 6.8 49.5613 6.8 49.5618 6.8C49.5623 6.8 49.5628 6.8 49.5633 6.8C49.5638 6.8 49.5643 6.8 49.5648 6.8C49.5653 6.8 49.5658 6.8 49.5663 6.8C49.5668 6.8 49.5673 6.8 49.5678 6.8C49.5683 6.8 49.5688 6.8 49.5692 6.8C49.5697 6.8 49.5702 6.8 49.5707 6.8C49.5712 6.8 49.5717 6.8 49.5722 6.8C49.5727 6.8 49.5732 6.8 49.5737 6.8C49.5742 6.8 49.5747 6.8 49.5752 6.8C49.5757 6.8 49.5761 6.8 49.5766 6.8C49.5771 6.8 49.5776 6.8 49.5781 6.8C49.5786 6.8 49.5791 6.8 49.5796 6.8C49.5801 6.8 49.5806 6.8 49.581 6.8C49.5815 6.8 49.582 6.8 49.5825 6.8C49.583 6.8 49.5835 6.8 49.584 6.8C49.5845 6.8 49.5849 6.8 49.5854 6.8C49.5859 6.8 49.5864 6.8 49.5869 6.8C49.5874 6.8 49.5878 6.8 49.5883 6.8C49.5888 6.8 49.5893 6.8 49.5898 6.8C49.5903 6.8 49.5907 6.8 49.5912 6.8C49.5917 6.8 49.5922 6.8 49.5927 6.8C49.5932 6.8 49.5936 6.8 49.5941 6.8C49.5946 6.8 49.5951 6.8 49.5956 6.8C49.596 6.8 49.5965 6.8 49.597 6.8C49.5975 6.8 49.598 6.8 49.5984 6.8C49.5989 6.8 49.5994 6.8 49.5999 6.8C49.6003 6.8 49.6008 6.8 49.6013 6.8C49.6018 6.8 49.6023 6.8 49.6027 6.8C49.6032 6.8 49.6037 6.8 49.6042 6.8C49.6046 6.8 49.6051 6.8 49.6056 6.8C49.6061 6.8 49.6065 6.8 49.607 6.8C49.6075 6.8 49.6079 6.8 49.6084 6.8C49.6089 6.8 49.6094 6.8 49.6098 6.8C49.6103 6.8 49.6108 6.8 49.6113 6.8C49.6117 6.8 49.6122 6.8 49.6127 6.8C49.6131 6.8 49.6136 6.8 49.6141 6.8C49.6145 6.8 49.615 6.8 49.6155 6.8C49.616 6.8 49.6164 6.8 49.6169 6.8C49.6174 6.8 49.6178 6.8 49.6183 6.8C49.6188 6.8 49.6192 6.8 49.6197 6.8C49.6202 6.8 49.6206 6.8 49.6211 6.8C49.6216 6.8 49.622 6.8 49.6225 6.8C49.6229 6.8 49.6234 6.8 49.6239 6.8C49.6243 6.8 49.6248 6.8 49.6253 6.8C49.6257 6.8 49.6262 6.8 49.6266 6.8C49.6271 6.8 49.6276 6.8 49.628 6.8C49.6285 6.8 49.629 6.8 49.6294 6.8C49.6299 6.8 49.6303 6.8 49.6308 6.8C49.6313 6.8 49.6317 6.8 49.6322 6.8C49.6326 6.8 49.6331 6.8 49.6336 6.8C49.634 6.8 49.6345 6.8 49.6349 6.8C49.6354 6.8 49.6358 6.8 49.6363 6.8C49.6367 6.8 49.6372 6.8 49.6377 6.8C49.6381 6.8 49.6386 6.8 49.639 6.8C49.6395 6.8 49.6399 6.8 49.6404 6.8C49.6408 6.8 49.6413 6.8 49.6418 6.8C49.6422 6.8 49.6427 6.8 49.6431 6.8C49.6436 6.8 49.644 6.8 49.6445 6.8C49.6449 6.8 49.6454 6.8 49.6458 6.8C49.6463 6.8 49.6467 6.8 49.6472 6.8C49.6476 6.8 49.6481 6.8 49.6485 6.8C49.649 6.8 49.6494 6.8 49.6499 6.8C49.6503 6.8 49.6508 6.8 49.6512 6.8C49.6517 6.8 49.6521 6.8 49.6525 6.8C49.653 6.8 49.6534 6.8 49.6539 6.8C49.6543 6.8 49.6548 6.8 49.6552 6.8C49.6557 6.8 49.6561 6.8 49.6566 6.8C49.657 6.8 49.6574 6.8 49.6579 6.8C49.6583 6.8 49.6588 6.8 49.6592 6.8C49.6597 6.8 49.6601 6.8 49.6605 6.8C49.661 6.8 49.6614 6.8 49.6619 6.8C49.6623 6.8 49.6627 6.8 49.6632 6.8C49.6636 6.8 49.6641 6.8 49.6645 6.8C49.6649 6.8 49.6654 6.8 49.6658 6.8C49.6663 6.8 49.6667 6.8 49.6671 6.8C49.6676 6.8 49.668 6.8 49.6684 6.8C49.6689 6.8 49.6693 6.8 49.6698 6.8C49.6702 6.8 49.6706 6.8 49.6711 6.8C49.6715 6.8 49.6719 6.8 49.6724 6.8C49.6728 6.8 49.6732 6.8 49.6737 6.8C49.6741 6.8 49.6745 6.8 49.675 6.8C49.6754 6.8 49.6758 6.8 49.6763 6.8C49.6767 6.8 49.6771 6.8 49.6776 6.8C49.678 6.8 49.6784 6.8 49.6789 6.8C49.6793 6.8 49.6797 6.8 49.6801 6.8C49.6806 6.8 49.681 6.8 49.6814 6.8C49.6819 6.8 49.6823 6.8 49.6827 6.8C49.6831 6.8 49.6836 6.8 49.684 6.8C49.6844 6.8 49.6849 6.8 49.6853 6.8C49.6857 6.8 49.6861 6.8 49.6866 6.8C49.687 6.8 49.6874 6.8 49.6878 6.8C49.6883 6.8 49.6887 6.8 49.6891 6.8C49.6895 6.8 49.69 6.8 49.6904 6.8C49.6908 6.8 49.6912 6.8 49.6916 6.8C49.6921 6.8 49.6925 6.8 49.6929 6.8C49.6933 6.8 49.6938 6.8 49.6942 6.8C49.6946 6.8 49.695 6.8 49.6954 6.8C49.6959 6.8 49.6963 6.8 49.6967 6.8C49.6971 6.8 49.6975 6.8 49.6979 6.8C49.6984 6.8 49.6988 6.8 49.6992 6.8C49.6996 6.8 49.7 6.8 49.7005 6.8C49.7009 6.8 49.7013 6.8 49.7017 6.8C49.7021 6.8 49.7025 6.8 49.7029 6.8C49.7034 6.8 49.7038 6.8 49.7042 6.8C49.7046 6.8 49.705 6.8 49.7054 6.8C49.7058 6.8 49.7063 6.8 49.7067 6.8C49.7071 6.8 49.7075 6.8 49.7079 6.8C49.7083 6.8 49.7087 6.8 49.7091 6.8C49.7095 6.8 49.71 6.8 49.7104 6.8C49.7108 6.8 49.7112 6.8 49.7116 6.8C49.712 6.8 49.7124 6.8 49.7128 6.8C49.7132 6.8 49.7136 6.8 49.714 6.8C49.7145 6.8 49.7149 6.8 49.7153 6.8C49.7157 6.8 49.7161 6.8 49.7165 6.8C49.7169 6.8 49.7173 6.8 49.7177 6.8C49.7181 6.8 49.7185 6.8 49.7189 6.8C49.7193 6.8 49.7197 6.8 49.7201 6.8C49.7205 6.8 49.7209 6.8 49.7213 6.8C49.7217 6.8 49.7221 6.8 49.7225 6.8C49.7229 6.8 49.7233 6.8 49.7238 6.8C49.7242 6.8 49.7246 6.8 49.725 6.8C49.7254 6.8 49.7258 6.8 49.7262 6.8C49.7266 6.8 49.727 6.8 49.7273 6.8C49.7277 6.8 49.7281 6.8 49.7285 6.8C49.7289 6.8 49.7293 6.8 49.7297 6.8C49.7301 6.8 49.7305 6.8 49.7309 6.8C49.7313 6.8 49.7317 6.8 49.7321 6.8C49.7325 6.8 49.7329 6.8 49.7333 6.8C49.7337 6.8 49.7341 6.8 49.7345 6.8C49.7349 6.8 49.7353 6.8 49.7357 6.8C49.7361 6.8 49.7364 6.8 49.7368 6.8C49.7372 6.8 49.7376 6.8 49.738 6.8C49.7384 6.8 49.7388 6.8 49.7392 6.8C49.7396 6.8 49.74 6.8 49.7404 6.8C49.7407 6.8 49.7411 6.8 49.7415 6.8C49.7419 6.8 49.7423 6.8 49.7427 6.8C49.7431 6.8 49.7435 6.8 49.7439 6.8C49.7442 6.8 49.7446 6.8 49.745 6.8C49.7454 6.8 49.7458 6.8 49.7462 6.8C49.7466 6.8 49.7469 6.8 49.7473 6.8C49.7477 6.8 49.7481 6.8 49.7485 6.8C49.7489 6.8 49.7492 6.8 49.7496 6.8C49.75 6.8 49.7504 6.8 49.7508 6.8C49.7512 6.8 49.7515 6.8 49.7519 6.8C49.7523 6.8 49.7527 6.8 49.7531 6.8C49.7534 6.8 49.7538 6.8 49.7542 6.8C49.7546 6.8 49.755 6.8 49.7553 6.8C49.7557 6.8 49.7561 6.8 49.7565 6.8C49.7569 6.8 49.7572 6.8 49.7576 6.8C49.758 6.8 49.7584 6.8 49.7587 6.8C49.7591 6.8 49.7595 6.8 49.7599 6.8C49.7603 6.8 49.7606 6.8 49.761 6.8V4.8ZM48.865 4.8C48.3891 4.8 47.8563 4.87469 47.4171 5.17141C46.9081 5.51533 46.681 6.04773 46.681 6.6H48.681C48.681 6.59037 48.6824 6.63043 48.6518 6.69242C48.6191 6.75882 48.572 6.80482 48.5369 6.82859C48.5083 6.84789 48.5084 6.8387 48.5667 6.82556C48.6248 6.81248 48.7208 6.8 48.865 6.8V4.8ZM46.681 6.6V8.36H48.681V6.6H46.681ZM47.7729 9.35577L49.8529 9.16377L49.6691 7.17223L47.5891 7.36423L47.7729 9.35577ZM55.433 10.952C55.433 10.4666 55.4439 10.1416 55.4609 9.95454L53.4691 9.77346C53.4435 10.0557 53.433 10.4561 53.433 10.952H55.433ZM55.4514 10.0284C55.4749 9.88737 55.5354 9.68814 55.6592 9.42289L53.8468 8.57711C53.6719 8.95186 53.5404 9.32863 53.4786 9.6996L55.4514 10.0284ZM55.6335 9.4741C55.6215 9.49627 55.6474 9.41463 55.9172 9.32468C56.1909 9.23345 56.6209 9.168 57.249 9.168V7.168C56.5118 7.168 55.8431 7.24122 55.2848 7.42732C54.7226 7.6147 54.1831 7.94906 53.8725 8.5259L55.6335 9.4741ZM57.249 9.168C58.21 9.168 58.6304 9.34907 58.7774 9.47394L60.0727 7.95006C59.3662 7.3496 58.336 7.168 57.249 7.168V9.168ZM58.7893 9.48393C58.8657 9.54686 58.9868 9.69404 59.0016 10.1225L61.0004 10.0535C60.9725 9.24462 60.7096 8.47447 60.0607 7.94007L58.7893 9.48393ZM59.006 10.1875C59.0223 10.3505 59.033 10.6202 59.033 11.016H61.033C61.033 10.6011 61.0224 10.2522 60.996 9.9885L59.006 10.1875ZM59.033 11.016V22.216H61.033V11.016H59.033ZM59.033 22.216C59.033 22.6909 59.0115 22.9984 58.9826 23.1716L60.9554 23.5004C61.0119 23.1616 61.033 22.7224 61.033 22.216H59.033ZM58.9731 23.2455C58.9686 23.2952 58.9369 23.4383 58.7986 23.6974L60.5634 24.6386C60.7665 24.2577 60.9267 23.8462 60.9649 23.4265L58.9731 23.2455ZM58.7866 23.7208C58.8062 23.6814 58.7986 23.7562 58.5371 23.8446C58.2712 23.9343 57.8459 24 57.217 24V26C57.9534 26 58.6215 25.927 59.1769 25.7394C59.7367 25.5504 60.2784 25.2092 60.5754 24.6152L58.7866 23.7208ZM57.217 24C56.6032 24 56.1867 23.9325 55.9239 23.8403C55.797 23.7958 55.7243 23.7519 55.6858 23.7222C55.6506 23.6951 55.6425 23.679 55.6408 23.6757L53.8652 24.5963C54.1672 25.1787 54.6949 25.5288 55.2621 25.7277C55.8206 25.9235 56.4868 26 57.217 26V24ZM55.6592 23.7131C55.5305 23.4374 55.4708 23.2456 55.4489 23.1251L53.4811 23.4829C53.5446 23.8317 53.6768 24.1946 53.8468 24.5589L55.6592 23.7131ZM55.4609 23.2135C55.4439 23.0271 55.433 22.6923 55.433 22.184H53.433C53.433 22.6997 53.4434 23.1116 53.4691 23.3945L55.4609 23.2135ZM55.433 22.184V10.952H53.433V22.184H55.433ZM58.7866 4.58478C58.7827 4.59246 58.7761 4.60433 58.7513 4.62337C58.7228 4.6453 58.6623 4.68229 58.5479 4.71842L59.1501 6.62558C59.7393 6.43954 60.2741 6.08186 60.5754 5.47921L58.7866 4.58478ZM58.5479 4.71842C58.2807 4.80279 57.8515 4.864 57.217 4.864V6.864C57.9479 6.864 58.6067 6.79721 59.1501 6.62558L58.5479 4.71842ZM57.217 4.864C56.6077 4.864 56.1876 4.80352 55.9181 4.71842L55.3159 6.62558C55.857 6.79648 56.5036 6.864 57.217 6.864V4.864ZM55.9181 4.71842C55.7161 4.65463 55.6619 4.57916 55.6354 4.52941L53.8706 5.47059C54.1855 6.06084 54.7072 6.43337 55.3159 6.62558L55.9181 4.71842ZM55.6592 4.57712C55.5305 4.30137 55.4708 4.10959 55.4489 3.98912L53.4811 4.34688C53.5446 4.69574 53.6768 5.05862 53.8468 5.42288L55.6592 4.57712ZM55.4615 4.08495C55.4437 3.87117 55.433 3.53102 55.433 3.048H53.433C53.433 3.54631 53.4436 3.95283 53.4685 4.25105L55.4615 4.08495ZM55.433 3.048C55.433 2.56257 55.4439 2.23765 55.4609 2.05054L53.4691 1.86946C53.4435 2.15168 53.433 2.55209 53.433 3.048H55.433ZM55.4514 2.1244C55.4738 1.99022 55.5306 1.80887 55.6474 1.57521L53.8586 0.680785C53.6767 1.04446 53.5416 1.41778 53.4786 1.7956L55.4514 2.1244ZM55.6408 1.58832C55.6413 1.58724 55.6484 1.57191 55.6842 1.54457C55.7234 1.51458 55.7979 1.47005 55.9281 1.42498C56.1975 1.33172 56.6233 1.264 57.249 1.264V-0.736002C56.5094 -0.736002 55.8365 -0.659726 55.2739 -0.464988C54.7038 -0.267662 54.1693 0.081238 53.8652 0.667681L55.6408 1.58832ZM57.249 1.264C57.8637 1.264 58.2753 1.33172 58.5302 1.4223C58.6529 1.46586 58.7192 1.50773 58.7511 1.53311C58.7665 1.54535 58.7739 1.5537 58.7768 1.55717C58.7794 1.56042 58.7799 1.56166 58.78 1.56181L60.582 0.694183C60.2939 0.0958361 59.7652 -0.26143 59.1998 -0.462304C58.6441 -0.659728 57.9783 -0.736002 57.249 -0.736002V1.264ZM58.7986 1.59858C58.9298 1.8444 58.9661 1.99832 58.9725 2.07505L60.9655 1.90895C60.9293 1.47368 60.7736 1.05159 60.5634 0.657413L58.7986 1.59858ZM58.9851 2.17088C59.0109 2.31257 59.033 2.60039 59.033 3.08H61.033C61.033 2.57828 61.0124 2.14076 60.9529 1.81312L58.9851 2.17088ZM59.033 3.08C59.033 3.55494 59.0115 3.86239 58.9826 4.0356L60.9554 4.3644C61.0119 4.02561 61.033 3.58639 61.033 3.08H59.033ZM58.9731 4.10946C58.9686 4.15915 58.9369 4.30226 58.7986 4.56141L60.5634 5.50258C60.7665 5.12174 60.9267 4.71018 60.9649 4.29054L58.9731 4.10946Z" fill="#F8F4F4"/>
</svg>
